<?xml version="1.0" standalone="no"?>
<!DOCTYPE svg PUBLIC "-//W3C//DTD SVG 20010904//EN"
 "http://www.w3.org/TR/2001/REC-SVG-20010904/DTD/svg10.dtd">
<svg version="1.0" xmlns="http://www.w3.org/2000/svg"
 width="600.000000pt" height="600.000000pt" viewBox="0 0 600.000000 600.000000"
 preserveAspectRatio="xMidYMid meet">
<metadata>
Created by potrace 1.11, written by Peter Selinger 2001-2013
</metadata>
<g transform="translate(0.000000,600.000000) scale(0.100000,-0.100000)"
fill="#000000" stroke="none">
<path d="M0 5880 l0 -120 30 0 c17 0 30 -4 30 -10 0 -5 -13 -10 -30 -10 l-30
0 0 -80 c0 -47 4 -80 10 -80 6 0 10 -13 10 -30 0 -16 -4 -30 -10 -30 -15 0
-12 -29 4 -46 8 -8 26 -14 40 -14 14 0 26 -4 26 -10 0 -15 29 -12 46 4 8 8 14
22 14 30 0 9 5 16 10 16 16 0 13 217 -2 222 -9 3 -8 9 4 21 11 12 34 17 72 17
49 0 56 2 56 20 0 11 5 20 10 20 6 0 10 9 10 20 0 11 5 20 10 20 6 0 10 -29
10 -66 0 -60 -3 -68 -30 -94 -27 -26 -30 -34 -30 -94 0 -37 -4 -66 -10 -66 -5
0 -10 -22 -10 -50 0 -27 -4 -50 -10 -50 -5 0 -10 -16 -10 -35 0 -44 -55 -105
-95 -105 -14 0 -25 -4 -25 -10 0 -5 -22 -10 -50 -10 l-50 0 0 -420 c0 -413 0
-420 20 -420 11 0 20 -4 20 -10 0 -5 9 -10 20 -10 11 0 20 -4 20 -10 0 -5 9
-10 20 -10 22 0 29 35 8 42 -8 3 -3 14 14 31 29 29 53 35 62 15 5 -10 7 -10
12 0 17 36 24 -2 24 -128 l0 -140 -70 0 c-63 0 -91 11 -58 22 16 6 -14 38 -34
38 -8 0 -20 9 -28 20 -8 11 -18 20 -22 20 -4 0 -8 -108 -8 -240 l0 -240 40 0
c37 0 40 -2 40 -28 0 -16 8 -34 20 -42 26 -18 26 -30 0 -30 -11 0 -20 5 -20
10 0 6 -13 10 -30 10 -23 0 -30 4 -30 20 0 11 -4 20 -10 20 -7 0 -10 -637 -10
-1890 l0 -1890 1040 0 c687 0 1040 3 1040 10 0 6 -13 10 -30 10 -16 0 -30 5
-30 10 0 6 -7 10 -15 10 -18 0 -85 64 -85 80 0 16 -47 60 -65 60 -8 0 -15 8
-15 18 0 10 -9 24 -20 32 -11 8 -20 21 -20 30 0 9 -9 22 -20 30 -11 8 -20 20
-20 28 0 18 46 62 65 62 8 0 15 5 15 10 0 6 9 10 20 10 11 0 20 5 20 10 0 6
11 10 25 10 17 0 43 17 80 55 30 30 55 60 55 66 0 6 14 24 30 39 17 15 30 35
30 44 0 9 5 16 10 16 6 0 10 8 10 18 0 10 9 24 20 32 12 8 20 26 20 42 0 15 5
28 10 28 6 0 10 14 10 30 0 17 5 30 10 30 20 0 9 33 -20 60 -17 15 -30 33 -30
40 0 21 -28 40 -60 40 -23 0 -40 9 -61 31 l-29 31 -29 -31 c-16 -17 -32 -31
-35 -31 -3 0 -6 41 -6 90 0 53 -4 90 -10 90 -14 0 -12 37 3 44 10 5 10 7 0 12
-9 4 -13 31 -13 85 0 46 -4 79 -10 79 -6 0 -10 50 -10 130 0 80 -4 130 -10
130 -6 0 -10 33 -10 80 0 47 -4 80 -10 80 -5 0 -10 18 -10 40 0 22 -4 40 -10
40 -5 0 -10 14 -10 30 0 17 -4 30 -10 30 -6 0 -10 -37 -10 -90 0 -53 4 -90 10
-90 15 0 12 -77 -2 -83 -10 -4 -9 -8 2 -17 11 -9 12 -13 3 -17 -7 -2 -13 -11
-13 -20 0 -21 -32 -52 -38 -35 -8 26 -22 10 -22 -28 0 -22 5 -40 10 -40 6 0
10 -12 10 -26 0 -16 12 -37 30 -54 29 -27 42 -80 20 -80 -6 0 -10 -33 -10 -80
0 -73 -9 -99 -24 -67 -5 9 -7 9 -12 0 -10 -23 -24 -13 -24 17 0 17 -4 30 -10
30 -5 0 -10 9 -10 20 0 11 -4 20 -10 20 -5 0 -10 14 -10 30 0 17 -4 30 -10 30
-5 0 -10 9 -10 20 0 11 -4 20 -10 20 -5 0 -10 13 -10 28 0 16 -8 34 -20 42
-11 8 -20 25 -20 38 0 25 -21 52 -40 52 -18 0 -40 -27 -40 -50 0 -25 22 -50
44 -50 9 0 16 -8 16 -20 0 -13 -7 -20 -20 -20 -27 0 -26 -28 2 -52 19 -16 20
-21 8 -29 -11 -8 -12 -12 -2 -16 14 -6 16 -43 2 -43 -5 0 -10 -4 -10 -10 0 -5
7 -10 16 -10 20 0 44 -24 44 -44 0 -9 -8 -16 -20 -16 -11 0 -20 -4 -20 -10 0
-5 5 -10 10 -10 6 0 10 -13 10 -30 0 -16 5 -30 10 -30 6 0 10 -18 10 -40 0
-22 5 -40 10 -40 6 0 10 -13 10 -30 0 -16 5 -30 10 -30 6 0 10 -13 10 -30 0
-16 5 -30 10 -30 6 0 10 -18 10 -40 0 -22 5 -40 10 -40 6 0 10 -22 10 -50 0
-27 5 -50 10 -50 15 0 12 -49 -4 -66 -8 -8 -26 -14 -40 -14 -14 0 -26 -4 -26
-10 0 -5 -13 -10 -30 -10 -16 0 -30 -4 -30 -10 0 -5 -13 -10 -30 -10 -27 0
-30 -3 -30 -30 0 -23 5 -30 19 -30 11 0 22 -6 25 -12 5 -11 7 -11 12 0 8 17
24 15 24 -4 0 -18 -23 -44 -40 -44 -12 0 -40 -24 -40 -34 0 -3 14 -6 30 -6 23
0 30 -4 30 -20 0 -16 -7 -20 -30 -20 -16 0 -30 -4 -30 -10 0 -5 -9 -10 -20
-10 -11 0 -20 -4 -20 -10 0 -5 -22 -10 -50 -10 -27 0 -50 -4 -50 -10 0 -5 5
-10 10 -10 6 0 10 -4 10 -10 0 -5 -13 -10 -30 -10 -16 0 -30 -4 -30 -10 0 -5
9 -10 20 -10 13 0 20 -7 20 -20 0 -17 -7 -20 -50 -20 -27 0 -50 5 -50 10 0 6
-22 10 -50 10 -27 0 -50 5 -50 10 0 6 -33 10 -80 10 -47 0 -80 4 -80 10 0 6
-13 10 -30 10 -16 0 -30 5 -30 10 0 6 -13 10 -30 10 -16 0 -30 5 -30 10 0 6
-18 10 -40 10 -22 0 -40 5 -40 10 0 6 -18 10 -40 10 -22 0 -40 5 -40 10 0 6
-13 10 -30 10 -16 0 -30 5 -30 10 0 6 -13 10 -30 10 -16 0 -30 5 -30 10 0 6
-18 10 -40 10 l-40 0 0 40 c0 22 5 40 10 40 6 0 10 14 10 30 0 23 4 30 20 30
16 0 20 7 20 30 0 17 5 30 10 30 6 0 10 9 10 20 0 11 5 20 10 20 6 0 10 9 10
20 0 11 5 20 10 20 6 0 10 9 10 20 0 11 5 20 10 20 6 0 10 23 10 50 0 28 5 50
10 50 6 0 10 9 10 20 0 11 5 20 10 20 6 0 10 9 10 20 0 11 5 20 10 20 6 0 10
9 10 20 0 11 5 20 10 20 6 0 10 18 10 40 0 22 5 40 10 40 6 0 10 18 10 40 0
22 5 40 10 40 6 0 10 14 10 30 0 17 5 30 10 30 6 0 10 14 10 30 0 17 5 30 10
30 6 0 10 9 10 20 0 11 5 20 10 20 6 0 10 9 10 20 0 11 5 20 10 20 6 0 10 23
10 50 0 28 5 50 10 50 6 0 10 14 10 30 0 17 5 30 10 30 6 0 10 14 10 30 0 17
5 30 10 30 6 0 10 9 10 20 0 11 5 20 10 20 6 0 10 14 10 30 0 17 5 30 10 30 6
0 10 14 10 30 0 17 5 30 10 30 6 0 10 9 10 20 0 11 5 20 10 20 6 0 10 23 10
50 0 28 5 50 10 50 6 0 10 9 10 20 0 11 5 20 10 20 6 0 10 14 10 30 0 28 -2
30 -40 30 -22 0 -40 5 -40 10 0 6 14 10 30 10 17 0 30 5 30 10 0 6 14 10 30
10 23 0 30 4 30 20 0 11 5 20 10 20 6 0 10 9 10 20 0 11 5 20 10 20 6 0 10 9
10 20 0 11 5 20 10 20 6 0 10 14 10 30 0 17 5 30 10 30 6 0 10 9 10 20 0 11 5
20 10 20 6 0 10 9 10 20 0 11 5 20 10 20 6 0 10 14 10 30 0 17 5 30 10 30 6 0
10 9 10 20 0 11 5 20 10 20 6 0 10 7 10 16 0 8 18 33 40 54 22 21 40 46 40 54
0 9 5 16 10 16 6 0 10 8 10 18 0 10 9 24 20 32 11 8 20 20 20 27 0 17 86 103
103 103 7 0 19 9 27 20 8 11 22 20 32 20 10 0 18 5 18 10 0 6 9 10 20 10 11 0
20 5 20 10 0 6 13 10 28 10 16 0 34 8 42 20 11 15 26 20 62 20 26 0 48 5 48
10 0 6 9 10 20 10 11 0 20 5 20 10 0 6 8 10 18 10 10 0 24 9 32 20 8 11 21 20
30 20 9 0 22 9 30 20 11 15 26 20 62 20 26 0 48 5 48 10 0 6 14 10 30 10 17 0
30 5 30 10 0 6 9 10 20 10 11 0 20 5 20 10 0 6 14 10 30 10 17 0 30 5 30 10 0
6 9 10 20 10 11 0 20 5 20 10 0 6 14 10 30 10 17 0 30 5 30 10 0 6 9 10 20 10
11 0 20 5 20 10 0 6 14 10 30 10 20 0 30 -5 30 -15 0 -20 125 -145 145 -145 8
0 15 -9 15 -20 0 -13 7 -20 20 -20 11 0 20 -4 20 -10 0 -5 9 -10 20 -10 11 0
20 -4 20 -10 0 -5 9 -10 20 -10 11 0 20 -4 20 -10 0 -5 9 -10 20 -10 11 0 20
-4 20 -10 0 -5 9 -10 20 -10 11 0 20 -4 20 -10 0 -5 18 -10 40 -10 22 0 40 -4
40 -10 0 -5 18 -10 40 -10 22 0 40 -4 40 -10 0 -6 33 -10 80 -10 47 0 80 4 80
10 0 6 7 10 16 10 8 0 42 27 74 60 32 33 66 60 74 60 9 0 16 5 16 10 0 6 14
10 30 10 17 0 30 5 30 10 0 6 -4 10 -10 10 -14 0 -12 38 2 43 8 2 9 8 4 13 -5
5 -11 4 -13 -3 -11 -32 -23 -8 -23 47 0 33 4 60 10 60 6 0 10 9 10 20 0 11 5
20 10 20 6 0 10 18 10 40 0 22 5 40 10 40 6 0 10 9 10 20 0 11 5 20 10 20 6 0
10 9 10 20 0 11 5 20 10 20 6 0 10 14 10 30 0 17 5 30 10 30 6 0 10 9 10 20 0
11 5 20 10 20 6 0 10 14 10 30 0 17 5 30 10 30 6 0 10 -18 10 -40 0 -22 5 -40
10 -40 6 0 10 -9 10 -20 0 -11 5 -20 10 -20 6 0 10 -22 10 -50 0 -27 5 -50 10
-50 6 0 10 -21 10 -46 0 -52 16 -74 54 -74 25 0 26 1 26 70 l0 70 30 0 c23 0
30 -4 30 -20 0 -11 -4 -20 -10 -20 -15 0 -12 -70 4 -86 20 -20 39 -18 56 6 20
28 30 25 30 -10 0 -27 3 -30 30 -30 17 0 30 -4 30 -10 0 -6 -27 -10 -60 -10
-33 0 -60 4 -60 10 0 6 -4 10 -10 10 -15 0 -12 -29 4 -46 8 -8 24 -14 36 -14
12 0 35 -13 50 -30 15 -16 35 -30 44 -30 9 0 16 -4 16 -10 0 -5 18 -10 40 -10
22 0 40 -4 40 -10 0 -5 7 -10 15 -10 9 0 27 -11 40 -25 14 -13 25 -31 25 -40
0 -8 5 -15 10 -15 6 0 10 -37 10 -90 0 -53 -4 -90 -10 -90 -6 0 -10 -37 -10
-90 0 -53 -4 -90 -10 -90 -6 0 -10 -27 -10 -60 0 -33 4 -60 10 -60 6 0 10 -18
10 -40 0 -22 -4 -40 -10 -40 -5 0 -10 -22 -10 -50 0 -27 -4 -50 -10 -50 -5 0
-10 -22 -10 -50 0 -27 -4 -50 -10 -50 -5 0 -10 -18 -10 -40 0 -22 -4 -40 -10
-40 -5 0 -10 -22 -10 -50 0 -27 -4 -50 -10 -50 -5 0 -10 -22 -10 -50 0 -27 -4
-50 -10 -50 -5 0 -10 -18 -10 -40 0 -22 -4 -40 -10 -40 -5 0 -10 -18 -10 -40
0 -22 -4 -40 -10 -40 -5 0 -10 -22 -10 -50 0 -27 -4 -50 -10 -50 -5 0 -10 -13
-10 -30 0 -16 -4 -30 -10 -30 -5 0 -10 -18 -10 -40 0 -22 -4 -40 -10 -40 -5 0
-10 -22 -10 -50 0 -27 -4 -50 -10 -50 -5 0 -10 -22 -10 -50 0 -27 -4 -50 -10
-50 -5 0 -10 -18 -10 -40 0 -22 -4 -40 -10 -40 -5 0 -10 -18 -10 -40 0 -22 -4
-40 -10 -40 -5 0 -10 -18 -10 -40 0 -22 -4 -40 -10 -40 -5 0 -10 -18 -10 -40
0 -22 -4 -40 -10 -40 -5 0 -10 -18 -10 -40 0 -22 -4 -40 -10 -40 -5 0 -10 -22
-10 -50 0 -27 -4 -50 -10 -50 -5 0 -10 -18 -10 -40 0 -22 -4 -40 -10 -40 -5 0
-10 -18 -10 -40 0 -22 -4 -40 -10 -40 -5 0 -10 -18 -10 -40 0 -22 -4 -40 -10
-40 -5 0 -10 -22 -10 -50 0 -27 -4 -50 -10 -50 -5 0 -10 -13 -10 -30 0 -16 -4
-30 -10 -30 -5 0 -10 -13 -10 -30 0 -16 -4 -30 -10 -30 -5 0 -10 -18 -10 -40
0 -22 -4 -40 -10 -40 -5 0 -10 -18 -10 -40 0 -22 -4 -40 -10 -40 -5 0 -10 -13
-10 -30 l0 -30 160 0 160 0 0 30 c0 17 5 30 10 30 6 0 10 18 10 40 0 22 5 40
10 40 6 0 10 18 10 40 0 22 5 40 10 40 6 0 10 23 10 50 0 28 5 50 10 50 6 0
10 18 10 40 0 22 5 40 10 40 6 0 10 23 10 50 0 28 5 50 10 50 6 0 10 18 10 40
0 22 5 40 10 40 6 0 10 18 10 40 0 22 5 40 10 40 6 0 10 27 10 60 0 33 4 60
10 60 6 0 10 18 10 40 0 22 5 40 10 40 6 0 10 27 10 60 0 33 4 60 10 60 6 0
10 23 10 50 0 28 5 50 10 50 6 0 10 18 10 40 0 22 5 40 10 40 6 0 10 14 10 30
0 17 5 30 10 30 6 0 10 18 10 40 0 22 5 40 10 40 6 0 10 27 10 60 0 33 4 60
10 60 6 0 10 27 10 60 0 33 4 60 10 60 6 0 10 14 10 30 0 17 5 30 10 30 6 0
10 18 10 40 0 22 5 40 10 40 6 0 10 14 10 30 0 17 5 30 10 30 6 0 10 37 10 90
0 53 4 90 10 90 6 0 10 27 10 60 0 33 4 60 10 60 6 0 10 30 10 70 0 40 4 70
10 70 6 0 10 8 10 18 0 10 9 24 20 32 15 11 20 26 20 62 0 26 5 48 10 48 6 0
10 33 10 80 0 47 4 80 10 80 6 0 10 35 10 86 0 61 4 90 14 100 17 16 46 19 46
4 0 -5 7 -10 16 -10 8 0 33 -18 54 -40 31 -32 46 -40 74 -40 20 0 36 5 36 10
0 6 -4 10 -10 10 -5 0 -10 5 -10 10 0 6 9 10 20 10 13 0 20 -7 20 -20 0 -11 5
-20 10 -20 6 0 10 -9 10 -20 0 -11 -4 -20 -10 -20 -5 0 -10 -4 -10 -10 0 -5 9
-10 20 -10 13 0 20 -7 20 -18 0 -10 9 -24 20 -32 11 -8 20 -21 20 -30 0 -9 9
-22 20 -30 11 -8 20 -26 20 -40 0 -14 9 -32 20 -40 14 -10 20 -26 20 -50 0
-24 6 -40 20 -50 12 -8 20 -26 20 -42 0 -15 5 -28 10 -28 6 0 10 -9 10 -20 0
-11 5 -20 10 -20 6 0 10 -17 10 -38 0 -26 6 -42 20 -52 15 -11 20 -26 20 -60
0 -34 5 -49 20 -60 15 -11 20 -26 20 -62 0 -26 5 -48 10 -48 6 0 10 -9 10 -20
0 -11 5 -20 10 -20 6 0 10 -18 10 -40 0 -22 5 -40 10 -40 6 0 10 -13 10 -30 0
-16 5 -30 10 -30 6 0 10 -13 10 -30 0 -16 5 -30 10 -30 6 0 10 -9 10 -19 0
-11 6 -22 13 -24 9 -4 8 -8 -3 -17 -11 -9 -12 -13 -2 -17 7 -2 12 -22 12 -44
0 -21 5 -39 10 -39 6 0 10 -9 10 -20 0 -11 5 -20 10 -20 6 0 10 -18 10 -40 0
-22 5 -40 10 -40 6 0 10 -9 10 -20 0 -11 5 -20 10 -20 6 0 10 -9 10 -20 0 -11
5 -20 10 -20 6 0 10 -17 10 -38 0 -26 6 -42 20 -52 12 -8 20 -26 20 -42 0 -15
5 -28 10 -28 6 0 10 -9 10 -20 0 -11 5 -20 10 -20 6 0 10 -18 10 -40 0 -22 5
-40 10 -40 6 0 10 -13 10 -30 0 -16 5 -30 10 -30 6 0 10 -9 10 -20 0 -11 5
-20 10 -20 6 0 10 -9 10 -20 0 -11 5 -20 10 -20 6 0 10 -9 10 -20 0 -11 5 -20
10 -20 6 0 10 -13 10 -30 0 -16 5 -30 10 -30 6 0 10 -16 10 -35 0 -38 -36 -85
-65 -85 -8 0 -15 -4 -15 -10 0 -5 -13 -10 -30 -10 -16 0 -30 -4 -30 -10 0 -5
-12 -10 -26 -10 -16 0 -37 -12 -54 -30 -21 -23 -37 -30 -64 -30 -20 0 -36 -4
-36 -10 0 -5 -22 -10 -50 -10 -27 0 -50 -4 -50 -10 0 -6 -33 -10 -80 -10 -47
0 -80 -4 -80 -10 0 -5 -22 -10 -50 -10 -27 0 -50 5 -50 10 0 6 -7 10 -16 10
-8 0 -22 6 -30 14 -16 17 -19 46 -4 46 6 0 10 9 10 20 0 13 -7 20 -20 20 -11
0 -20 5 -20 10 0 6 -13 10 -30 10 -16 0 -30 -4 -30 -10 0 -5 -18 -10 -40 -10
-33 0 -40 3 -40 20 0 23 34 28 44 8 5 -10 7 -10 12 -1 4 9 29 13 75 13 39 0
69 4 69 10 0 6 9 10 20 10 11 0 20 5 20 10 0 6 -22 10 -50 10 -27 0 -50 5 -50
10 0 6 -9 10 -20 10 -11 0 -20 5 -20 10 0 6 -7 10 -16 10 -19 0 -49 28 -40 38
4 3 12 0 17 -8 8 -11 12 -12 16 -2 6 14 43 16 43 2 0 -5 9 -10 20 -10 13 0 20
7 20 20 0 11 -4 20 -10 20 -5 0 -10 23 -10 50 0 28 -4 50 -10 50 -5 0 -10 9
-10 20 0 11 -4 20 -10 20 -18 0 -10 32 13 53 15 13 18 21 10 24 -7 3 -13 18
-13 34 0 20 -5 29 -16 29 -23 0 -44 -25 -44 -52 0 -13 -9 -30 -20 -38 -11 -8
-20 -22 -20 -32 0 -10 -4 -18 -10 -18 -5 0 -10 -9 -10 -20 0 -11 -4 -20 -10
-20 -5 0 -10 -7 -10 -15 0 -14 -62 -85 -75 -85 -3 0 -5 14 -5 30 0 17 5 30 10
30 6 0 10 9 10 20 0 11 5 20 10 20 6 0 10 9 10 20 0 11 5 20 10 20 15 0 12 29
-4 46 -8 8 -22 14 -30 14 -24 0 -20 49 6 72 19 16 20 21 8 29 -11 8 -12 12 -3
16 8 2 13 22 13 44 0 21 5 39 10 39 6 0 10 9 10 20 0 11 -2 20 -5 20 -13 0
-55 -50 -55 -65 0 -8 -4 -15 -10 -15 -5 0 -10 -9 -10 -20 0 -11 -4 -20 -10
-20 -5 0 -10 -22 -10 -50 0 -27 -4 -50 -10 -50 -5 0 -10 -18 -10 -40 0 -22 -4
-40 -10 -40 -5 0 -10 -18 -10 -40 0 -22 5 -40 10 -40 6 0 10 -33 10 -80 0 -47
4 -80 10 -80 6 0 10 -30 10 -70 0 -40 -4 -70 -10 -70 -6 0 -10 -47 -10 -120 0
-73 4 -120 10 -120 6 0 10 -30 10 -70 0 -40 4 -70 10 -70 6 0 10 -22 10 -50
l0 -50 850 0 850 0 0 979 c0 774 -3 980 -12 984 -10 4 -9 8 2 16 13 10 13 12
0 22 -11 8 -12 12 -2 16 16 6 18 1543 2 1543 -5 0 -10 7 -10 16 0 20 -24 44
-44 44 -19 0 -22 -36 -3 -43 6 -2 9 -8 5 -12 -5 -5 -16 2 -27 13 -19 23 -51
30 -51 12 0 -5 5 -10 10 -10 6 0 10 -4 10 -10 0 -5 -12 -10 -26 -10 -17 0 -39
-14 -64 -40 -22 -23 -48 -40 -60 -40 -12 0 -35 -13 -50 -30 -15 -16 -34 -30
-42 -30 -7 0 -20 -9 -28 -20 -19 -26 -50 -26 -50 0 0 11 7 20 15 20 9 0 52 37
96 81 61 61 83 78 89 68 5 -7 13 -10 17 -5 4 5 2 11 -4 13 -22 8 -15 43 7 43
13 0 20 7 20 20 0 19 7 20 100 20 l100 0 0 50 0 50 -50 0 c-27 0 -50 3 -50 6
0 3 13 19 30 34 17 15 30 35 30 43 0 9 6 18 13 21 10 5 10 7 0 12 -20 9 -15
24 7 24 19 0 20 7 20 110 0 67 -4 110 -10 110 -5 0 -10 -9 -10 -20 0 -11 -4
-20 -10 -20 -5 0 -10 -8 -10 -18 0 -10 -9 -24 -20 -32 -11 -8 -20 -22 -20 -32
0 -10 -7 -18 -16 -18 -8 0 -33 -18 -54 -40 -21 -22 -46 -40 -54 -40 -9 0 -16
-4 -16 -10 0 -5 -9 -10 -20 -10 -11 0 -20 -4 -20 -10 0 -5 -13 -10 -30 -10
-16 0 -30 -4 -30 -10 0 -5 -13 -10 -29 -10 -16 0 -32 -6 -35 -12 -5 -10 -7
-10 -12 0 -3 6 -14 12 -25 12 -18 0 -19 11 -19 270 0 173 4 270 10 270 6 0 10
47 10 120 0 113 1 120 20 120 11 0 20 -4 20 -10 0 -5 14 -10 30 -10 17 0 30 5
30 10 0 6 30 10 70 10 40 0 70 -4 70 -10 0 -5 9 -10 20 -10 22 0 27 -15 7 -24
-9 -5 -9 -7 1 -12 14 -7 17 -104 2 -104 -6 0 -10 -26 -10 -59 0 -38 -4 -61
-13 -64 -9 -4 -8 -8 3 -17 11 -9 12 -13 3 -17 -8 -3 -13 -24 -13 -54 0 -27 -4
-49 -10 -49 -5 0 -10 -9 -10 -20 0 -11 -4 -20 -10 -20 -5 0 -10 -18 -10 -40 0
-22 -4 -40 -10 -40 -5 0 -10 -13 -10 -29 0 -16 -6 -31 -12 -34 -8 -2 -9 -8 -4
-13 5 -5 11 -4 13 4 5 14 43 16 43 2 0 -5 5 -10 10 -10 6 0 10 14 10 30 0 27
3 30 30 30 23 0 30 4 30 20 0 11 5 20 10 20 6 0 10 9 10 20 0 11 5 20 10 20 6
0 10 14 10 30 0 17 5 30 10 30 6 0 10 14 10 30 0 17 5 30 10 30 6 0 10 27 10
60 0 33 4 60 10 60 6 0 10 33 10 80 0 47 4 80 10 80 14 0 12 37 -2 44 -10 5
-10 7 0 12 9 4 12 49 12 175 l0 169 -39 0 c-22 0 -41 -5 -44 -12 -3 -9 -11 -6
-24 10 -22 24 -68 30 -77 10 -5 -10 -7 -10 -12 0 -3 6 -19 12 -35 12 -27 0
-29 -2 -29 -40 0 -33 3 -40 20 -40 11 0 20 -4 20 -10 0 -5 -9 -10 -20 -10 -11
0 -20 -4 -20 -10 0 -20 -51 -9 -76 15 l-26 26 21 18 c20 18 21 27 21 275 0
164 4 256 10 256 6 0 10 14 10 30 0 17 -4 30 -10 30 -14 0 -12 37 3 43 9 4 8
8 -3 17 -11 9 -12 13 -2 17 6 2 12 13 12 24 0 15 7 19 36 19 19 0 42 -6 50
-14 16 -17 19 -46 4 -46 -5 0 -10 -4 -10 -10 0 -5 9 -10 20 -10 13 0 20 7 20
18 0 10 9 24 20 32 12 8 20 26 20 42 0 37 24 36 60 -2 15 -16 35 -30 44 -30 9
0 16 -4 16 -10 0 -5 5 -10 10 -10 6 0 10 60 10 160 l0 160 -40 0 c-22 0 -40
-4 -40 -10 0 -5 -9 -10 -20 -10 -11 0 -20 -4 -20 -10 0 -5 -13 -10 -30 -10
-16 0 -30 -4 -30 -10 0 -5 -7 -10 -16 -10 -9 0 -25 -9 -35 -21 -16 -19 -20
-20 -34 -6 -8 9 -15 23 -15 31 0 9 -4 16 -10 16 -5 0 -10 9 -10 20 0 11 -4 20
-10 20 -5 0 -10 5 -10 10 0 6 27 10 60 10 33 0 60 4 60 10 0 6 9 10 20 10 11
0 20 -4 20 -10 0 -15 77 -12 84 3 5 10 7 10 12 0 3 -7 19 -13 35 -13 27 0 29
2 29 40 0 46 -21 54 -51 18 -11 -11 -22 -18 -27 -13 -4 4 -1 10 6 12 28 10 9
23 -36 23 -36 0 -51 -5 -62 -20 -8 -11 -22 -20 -32 -20 -11 0 -18 7 -18 20 0
19 -7 20 -120 20 l-120 0 0 -100 0 -100 -30 0 c-16 0 -30 5 -30 10 0 6 -12 10
-26 10 -31 0 -54 21 -54 50 0 24 -42 70 -65 70 -8 0 -15 5 -15 10 0 6 -8 10
-18 10 -10 0 -24 9 -32 20 -13 19 -26 20 -192 20 l-178 0 0 -66 c0 -43 -5 -70
-14 -80 -17 -16 -46 -19 -46 -4 0 6 -8 10 -18 10 -10 0 -24 9 -32 20 -8 11
-22 20 -32 20 -15 0 -18 9 -18 50 l0 50 -90 0 -90 0 0 -60 c0 -53 -2 -60 -20
-60 -12 0 -20 7 -20 16 0 8 -6 22 -14 30 -17 16 -46 19 -46 4 0 -5 -9 -10 -20
-10 -15 0 -20 7 -20 26 0 45 -20 54 -124 54 l-96 0 0 -40 c0 -38 -2 -40 -30
-40 -26 0 -30 4 -30 26 0 14 -6 32 -14 40 -17 16 -46 19 -46 4 0 -5 -18 -10
-40 -10 -22 0 -40 5 -40 10 0 7 -267 10 -780 10 -513 0 -780 -3 -780 -10 0 -5
23 -10 50 -10 l50 0 0 -60 c0 -33 -4 -60 -10 -60 -6 0 -10 -67 -10 -180 0
-113 -4 -180 -10 -180 -6 0 -10 -50 -10 -130 0 -80 -4 -130 -10 -130 -6 0 -10
-37 -10 -90 l0 -90 -220 0 c-140 0 -220 4 -220 10 0 6 -50 10 -129 10 -94 0
-131 3 -134 13 -4 9 -8 8 -17 -3 -9 -11 -13 -12 -17 -2 -3 8 -36 12 -114 12
l-109 0 0 40 c0 22 5 40 10 40 6 0 10 97 10 270 0 173 4 270 10 270 6 0 10 53
10 140 l0 140 -50 0 -50 0 0 -120 c0 -73 -4 -120 -10 -120 -6 0 -10 -37 -10
-90 0 -49 -4 -90 -8 -90 -4 0 -14 9 -22 20 -12 17 -26 20 -82 20 -37 0 -68 3
-68 6 0 11 29 34 44 34 9 0 16 7 16 16 0 9 14 29 30 44 26 24 30 35 30 80 0
72 -11 80 -114 80 -51 0 -86 4 -86 10 0 15 -29 12 -46 -4 -10 -11 -14 -43 -14
-127 0 -103 -2 -113 -23 -132 -15 -13 -18 -21 -9 -24 21 -8 13 -34 -18 -63
-17 -15 -30 -33 -30 -40 0 -6 -18 -29 -40 -50 -22 -21 -40 -45 -40 -52 0 -7
-9 -20 -20 -28 -11 -8 -20 -22 -20 -32 0 -16 11 -18 100 -18 60 0 100 -4 100
-10 0 -15 70 -12 86 4 20 21 17 59 -6 76 -21 15 -28 50 -10 50 6 0 10 -4 10
-10 0 -5 9 -10 20 -10 13 0 20 -7 20 -20 0 -13 7 -20 20 -20 13 0 20 -7 20
-20 0 -18 7 -20 56 -20 35 0 61 -5 70 -14 16 -17 19 -46 4 -46 -6 0 -10 -33
-10 -80 l0 -80 -30 0 c-16 0 -30 5 -30 10 0 6 5 10 10 10 6 0 10 14 10 30 0
40 -23 39 -61 -1 -26 -27 -30 -29 -44 -16 -9 9 -15 33 -15 57 0 23 -6 48 -14
56 -16 16 -86 19 -86 4 0 -5 -22 -10 -50 -10 -27 0 -50 -4 -50 -10 0 -6 -27
-10 -60 -10 -33 0 -60 -4 -60 -10 0 -5 -13 -10 -29 -10 -16 0 -31 -6 -33 -12
-3 -9 -9 -8 -21 4 -11 11 -17 33 -17 62 0 25 -4 46 -10 46 -5 0 -10 14 -10 30
0 29 2 30 45 30 35 0 52 6 70 25 14 13 25 31 25 40 0 8 5 15 10 15 6 0 10 8
10 18 0 10 9 24 20 32 11 8 20 22 20 32 0 10 5 18 10 18 6 0 10 14 10 30 0 17
5 30 10 30 6 0 10 5 10 10 0 6 -9 10 -20 10 -11 0 -20 5 -20 10 0 6 9 10 20
10 17 0 20 7 20 40 0 22 5 40 10 40 6 0 10 29 10 66 0 73 -12 94 -54 94 -14 0
-26 5 -26 10 0 6 -33 10 -78 10 -66 0 -80 3 -92 20 -8 11 -22 20 -32 20 -16 0
-18 -10 -18 -80 0 -47 -4 -80 -10 -80 -15 0 -13 -117 3 -124 10 -5 10 -7 0
-12 -7 -3 -13 -14 -13 -25 0 -10 -4 -19 -10 -19 -6 0 -10 -43 -10 -110 l0
-110 -40 0 c-40 0 -40 0 -40 38 0 26 -6 42 -20 52 -11 8 -20 18 -20 22 0 4 9
8 20 8 19 0 20 7 20 100 0 60 4 100 10 100 6 0 10 49 10 126 0 143 -5 154 -70
154 -69 0 -70 -4 -70 -224 0 -124 -4 -196 -10 -196 -5 0 -10 -9 -10 -20 0 -11
5 -20 10 -20 6 0 10 -9 10 -20 0 -11 -4 -20 -10 -20 -5 0 -10 -18 -10 -40 0
-22 -4 -40 -10 -40 -5 0 -10 -9 -10 -20 0 -24 -43 -28 -66 -6 -16 17 -19 46
-4 46 6 0 10 50 10 130 0 80 4 130 10 130 6 0 10 57 10 150 l0 150 -48 0 c-36
0 -51 -5 -62 -20 -8 -11 -18 -20 -22 -20 -4 0 -8 9 -8 20 0 17 -7 20 -40 20
l-40 0 0 -70 c0 -63 -2 -70 -20 -70 -11 0 -20 -4 -20 -10 0 -5 -18 -10 -40
-10 -33 0 -40 3 -40 20 0 11 -4 20 -10 20 -5 0 -10 9 -10 20 0 11 5 20 10 20
6 0 10 14 10 30 0 17 5 30 10 30 6 0 10 5 10 10 0 6 -27 10 -60 10 l-60 0 0
-120z m5660 90 c0 -5 -9 -10 -20 -10 -11 0 -20 5 -20 10 0 6 9 10 20 10 11 0
20 -4 20 -10z m-2800 -40 c0 -5 8 -10 18 -10 10 0 24 -9 32 -20 8 -11 21 -20
30 -20 9 0 22 -9 30 -20 10 -14 26 -20 52 -20 21 0 38 -4 38 -10 0 -5 18 -10
40 -10 22 0 40 -4 40 -10 0 -6 -30 -10 -70 -10 -40 0 -70 4 -70 10 0 6 -13 10
-30 10 l-30 0 0 -69 c0 -46 -4 -71 -12 -74 -10 -4 -9 -8 2 -17 11 -9 12 -13 3
-17 -16 -6 -19 -363 -3 -363 15 0 12 -49 -4 -66 -9 -8 -34 -14 -60 -14 -44 0
-46 1 -46 28 0 16 -8 34 -20 42 -11 8 -20 18 -20 22 0 4 9 8 20 8 18 0 20 7
20 60 0 33 4 60 10 60 6 0 10 30 10 70 0 40 -4 70 -10 70 -5 0 -10 14 -10 30
0 17 5 30 10 30 6 0 10 47 10 120 0 112 -1 120 -19 120 -11 0 -21 5 -23 12 -3
8 -15 2 -33 -17 -19 -18 -25 -30 -17 -33 14 -4 16 -82 2 -82 -15 0 -13 -137 3
-144 10 -5 10 -7 0 -12 -9 -4 -13 -37 -13 -114 0 -77 -4 -110 -12 -114 -10 -5
-10 -7 0 -12 6 -3 12 -14 12 -25 0 -10 5 -19 10 -19 6 0 10 -4 10 -10 0 -5 -9
-10 -20 -10 -17 0 -20 -7 -20 -50 l0 -50 -40 0 -40 0 0 180 c0 113 4 180 10
180 6 0 10 70 10 190 l0 190 30 0 c17 0 30 5 30 10 0 6 30 10 70 10 40 0 70
-4 70 -10z m380 -20 c0 -5 18 -10 40 -10 33 0 40 -3 40 -20 0 -11 -4 -20 -10
-20 -5 0 -10 -13 -10 -30 l0 -30 66 0 c63 0 67 1 104 40 25 26 47 40 64 40 25
0 26 -1 26 -70 l0 -70 -30 0 c-16 0 -30 5 -30 10 0 6 -43 10 -110 10 l-110 0
0 -40 c0 -33 3 -40 20 -40 11 0 20 -4 20 -10 0 -5 -9 -10 -20 -10 -18 0 -20
-7 -20 -60 l0 -60 -36 0 c-52 0 -64 18 -64 94 0 37 4 66 10 66 6 0 10 18 10
40 0 33 -3 40 -20 40 -11 0 -20 5 -20 10 0 6 9 10 20 10 18 0 20 7 20 60 0 53
2 60 20 60 11 0 20 -4 20 -10z m1420 -20 c0 -5 -4 -10 -10 -10 -5 0 -10 5 -10
10 0 6 5 10 10 10 6 0 10 -4 10 -10z m-830 -70 c8 -11 20 -20 28 -20 16 0 42
-24 42 -40 0 -25 30 -40 80 -40 41 0 56 5 75 25 14 13 25 34 25 45 0 12 6 28
14 36 17 16 46 19 46 4 0 -5 23 -10 50 -10 39 0 50 -4 50 -16 0 -18 23 -44 40
-44 18 0 40 -27 40 -50 0 -12 6 -28 14 -36 17 -16 106 -20 106 -4 0 6 9 10 20
10 15 0 20 7 20 29 0 16 6 32 13 35 10 5 10 7 0 12 -7 3 -13 14 -13 25 0 16 7
19 40 19 l40 0 0 -40 c0 -22 -4 -40 -10 -40 -18 0 -11 -32 11 -51 l21 -18 -36
-35 c-19 -20 -40 -36 -47 -36 -6 0 -24 -13 -39 -30 -15 -16 -33 -30 -40 -30
-6 0 -33 -22 -60 -50 -27 -27 -54 -50 -60 -50 -6 0 -29 -18 -50 -40 -21 -22
-44 -40 -50 -40 -7 0 -25 -13 -40 -30 -15 -16 -38 -30 -49 -30 -23 0 -71 41
-71 60 0 17 -26 40 -44 40 -9 0 -16 8 -16 20 0 12 -7 20 -16 20 -20 0 -44 24
-44 44 0 9 -8 16 -20 16 -11 0 -20 7 -20 15 0 9 -49 65 -110 125 -70 70 -110
117 -110 130 0 25 22 50 44 50 9 0 16 5 16 10 0 6 9 10 20 10 11 0 20 5 20 10
0 18 55 11 70 -10z m830 -50 c0 -5 -4 -10 -10 -10 -5 0 -10 5 -10 10 0 6 5 10
10 10 6 0 10 -4 10 -10z m380 -20 c0 -6 37 -10 90 -10 53 0 90 -4 90 -10 0 -5
11 -10 25 -10 16 0 39 -13 61 -35 31 -31 33 -37 20 -50 -8 -8 -22 -15 -30 -15
-11 0 -16 -9 -16 -30 0 -16 -4 -30 -10 -30 -16 0 -13 -149 4 -166 31 -31 106
-10 106 30 0 11 9 16 30 16 17 0 30 -4 30 -10 0 -5 14 -10 30 -10 l30 0 0 70
c0 40 4 70 10 70 6 0 10 -43 10 -110 l0 -110 -30 0 c-16 0 -30 -4 -30 -10 0
-5 -9 -10 -20 -10 -11 0 -20 -4 -20 -10 0 -5 -9 -10 -20 -10 -11 0 -20 -4 -20
-10 0 -5 -8 -10 -18 -10 -10 0 -24 -9 -32 -20 -8 -11 -20 -20 -28 -20 -22 0
-42 -26 -42 -54 0 -14 -4 -26 -10 -26 -5 0 -10 -22 -10 -50 0 -27 5 -50 10
-50 6 0 10 -9 10 -20 0 -11 5 -20 10 -20 6 0 10 5 10 10 0 6 14 10 30 10 17 0
30 5 30 10 0 6 14 10 30 10 17 0 30 5 30 10 0 6 9 10 20 10 11 0 20 -4 20 -10
0 -5 -4 -10 -10 -10 -15 0 -12 -29 5 -46 13 -14 17 -14 30 0 8 8 15 26 15 40
0 14 5 26 10 26 6 0 10 -27 10 -60 0 -33 4 -60 10 -60 6 0 10 -13 10 -30 0
-16 -4 -30 -10 -30 -5 0 -10 -9 -10 -20 0 -19 -7 -20 -120 -20 -73 0 -120 4
-120 10 0 6 -18 10 -40 10 -33 0 -40 3 -40 20 0 11 -4 20 -10 20 -6 0 -10 70
-10 190 0 120 4 190 10 190 6 0 10 16 10 36 0 35 -18 64 -40 64 -17 0 -40 -26
-40 -44 0 -9 -4 -16 -10 -16 -5 0 -10 -18 -10 -40 0 -22 -4 -40 -10 -40 -5 0
-10 -13 -10 -30 0 -16 -4 -30 -10 -30 -5 0 -10 -16 -10 -36 0 -27 -7 -43 -30
-64 -16 -15 -30 -33 -30 -39 0 -16 -66 -81 -82 -81 -8 0 -20 -9 -28 -20 -8
-12 -26 -20 -42 -20 -15 0 -28 -4 -28 -10 0 -5 -13 -10 -30 -10 -16 0 -30 -4
-30 -10 0 -6 -27 -10 -60 -10 -33 0 -60 3 -60 6 0 10 28 34 40 34 7 0 25 14
40 30 27 29 60 40 60 20 0 -5 11 -10 25 -10 32 0 135 100 135 130 0 25 -22 50
-44 50 -13 0 -16 13 -16 70 0 82 13 90 61 39 l28 -30 26 25 c19 19 25 35 25
71 0 25 5 45 10 45 6 0 10 9 10 20 0 11 -4 20 -10 20 -15 0 -12 29 4 46 17 16
66 19 66 4 0 -5 9 -10 20 -10 11 0 20 -4 20 -10 0 -15 30 -12 47 6 14 13 14
17 2 26 -11 7 -11 11 -1 15 8 3 12 28 12 74 l0 69 -40 0 c-22 0 -40 5 -40 10
0 6 -25 10 -56 10 -57 0 -84 -14 -84 -44 0 -9 -4 -16 -10 -16 -5 0 -10 -9 -10
-20 0 -11 -4 -20 -10 -20 -5 0 -10 -13 -10 -29 0 -16 -6 -32 -12 -34 -10 -4
-10 -8 1 -15 12 -9 9 -16 -17 -40 -18 -17 -32 -37 -32 -46 0 -9 -4 -16 -10
-16 -5 0 -10 -18 -10 -40 0 -29 -4 -40 -15 -40 -18 0 -65 -44 -65 -60 0 -16
-47 -60 -65 -60 -8 0 -15 -4 -15 -10 0 -5 -9 -10 -20 -10 -11 0 -20 -4 -20
-10 0 -5 -4 -10 -10 -10 -15 0 -13 197 3 204 10 5 10 7 0 12 -17 8 -16 52 1
70 8 8 29 14 46 14 41 0 60 -20 60 -64 0 -20 5 -36 10 -36 6 0 10 9 10 20 0
11 5 20 10 20 6 0 10 9 10 20 0 11 5 20 10 20 6 0 10 18 10 40 0 22 5 40 10
40 6 0 10 14 10 30 0 17 5 30 10 30 6 0 10 27 10 60 l0 60 -70 0 c-40 0 -70 4
-70 10 0 6 18 10 40 10 38 0 40 2 40 30 l0 30 130 0 c80 0 130 -4 130 -10z
m-380 -20 c0 -5 -4 -10 -10 -10 -5 0 -10 5 -10 10 0 6 5 10 10 10 6 0 10 -4
10 -10z m880 -29 c0 -11 -6 -22 -12 -25 -10 -5 -10 -7 0 -12 17 -8 15 -32 -5
-52 -12 -12 -18 -13 -21 -4 -2 8 -25 12 -63 12 -47 0 -59 3 -59 15 0 29 47 65
85 65 19 0 35 5 35 10 0 6 9 10 20 10 13 0 20 -7 20 -19z m-2460 -11 c0 -5
-13 -10 -30 -10 -16 0 -30 5 -30 10 0 6 14 10 30 10 17 0 30 -4 30 -10z m386
-4 c24 -25 17 -46 -16 -46 -16 0 -30 5 -30 10 0 6 -13 10 -30 10 -16 0 -30 5
-30 10 0 6 9 10 20 10 11 0 20 5 20 10 0 15 49 12 66 -4z m-2566 -16 c0 -6
-27 -10 -60 -10 -33 0 -60 4 -60 10 0 6 27 10 60 10 33 0 60 -4 60 -10z m4740
-30 c0 -11 -4 -20 -10 -20 -5 0 -10 9 -10 20 0 11 5 20 10 20 6 0 10 -9 10
-20z m-4420 -10 c0 -5 -4 -10 -10 -10 -5 0 -10 5 -10 10 0 6 5 10 10 10 6 0
10 -4 10 -10z m2320 -50 l0 -60 -60 0 c-33 0 -60 4 -60 10 0 6 5 10 10 10 6 0
10 7 10 16 0 23 25 44 54 44 19 0 26 5 26 20 0 11 5 20 10 20 6 0 10 -27 10
-60z m255 -85 c69 -69 125 -132 125 -140 0 -8 9 -15 20 -15 13 0 20 -7 20 -20
0 -12 7 -20 16 -20 20 0 44 -24 44 -44 0 -9 8 -16 18 -16 10 0 24 -9 32 -20 8
-11 21 -20 30 -20 9 0 22 9 30 20 8 11 21 20 30 20 9 0 22 9 30 20 8 11 21 20
28 20 7 0 31 18 52 40 21 22 44 40 50 40 7 0 25 14 40 30 15 17 33 30 40 30 6
0 29 18 50 40 21 22 45 40 52 40 7 0 20 9 28 20 15 21 50 28 50 10 0 -5 -4
-10 -10 -10 -6 0 -10 -66 -10 -179 0 -134 -3 -181 -12 -185 -10 -5 -10 -7 0
-12 35 -16 0 -24 -108 -24 -73 0 -120 4 -120 10 0 6 -47 10 -120 10 -73 0
-120 4 -120 10 0 6 -47 10 -120 10 -73 0 -120 4 -120 10 0 6 -40 10 -100 10
l-100 0 0 160 c0 100 4 160 10 160 6 0 10 27 10 60 0 33 2 60 5 60 3 0 61 -56
130 -125z m-715 15 c0 -5 7 -10 16 -10 22 0 53 -32 36 -38 -16 -5 -16 -79 1
-86 10 -5 10 -7 0 -12 -8 -3 -13 -25 -13 -55 l0 -49 70 0 c40 0 70 -4 70 -10
0 -6 -30 -10 -70 -10 l-70 0 0 -80 c0 -79 0 -80 -26 -80 -51 0 -54 11 -54 234
0 199 1 206 20 206 11 0 20 -4 20 -10z m380 -40 c0 -5 9 -10 20 -10 13 0 20
-7 20 -20 0 -11 -4 -20 -10 -20 -5 0 -10 -25 -10 -56 0 -49 4 -59 30 -84 22
-21 30 -37 30 -63 0 -20 -6 -38 -12 -40 -10 -4 -9 -8 2 -17 11 -9 12 -13 3
-17 -7 -2 -13 -13 -13 -23 0 -10 6 -21 13 -24 10 -5 10 -7 0 -12 -8 -3 -13
-26 -13 -61 0 -37 -5 -60 -17 -71 -12 -12 -18 -13 -21 -4 -2 6 -12 12 -23 12
-21 0 -26 16 -7 22 9 3 8 9 -4 21 -18 18 -68 23 -68 7 0 -5 -9 -10 -20 -10
-16 0 -20 7 -20 30 0 17 -4 30 -10 30 -5 0 -10 9 -10 20 0 22 16 27 22 8 6
-17 38 14 38 36 0 9 5 16 10 16 6 0 10 9 10 20 0 11 -4 20 -10 20 -6 0 -10 33
-10 79 0 54 -4 81 -12 85 -10 5 -10 7 0 12 6 3 12 14 12 24 0 10 6 21 13 24
10 5 10 7 0 12 -7 3 -13 19 -13 35 0 27 2 29 40 29 22 0 40 -4 40 -10z m2060
-190 c0 -33 -3 -40 -20 -40 -13 0 -20 7 -20 20 0 11 5 20 10 20 6 0 10 9 10
20 0 11 5 20 10 20 6 0 10 -18 10 -40z m0 -96 c0 -15 -23 -44 -34 -44 -3 0 -6
14 -6 30 0 23 4 30 20 30 12 0 20 -7 20 -16z m-1620 -74 c0 -6 47 -10 120 -10
73 0 120 -4 120 -10 0 -6 43 -10 110 -10 67 0 110 -4 110 -10 0 -6 37 -10 90
-10 53 0 90 -4 90 -10 0 -6 -43 -10 -110 -10 -67 0 -110 4 -110 10 0 6 -43 10
-110 10 -67 0 -110 4 -110 10 0 6 -43 10 -110 10 -67 0 -110 4 -110 10 0 6
-47 10 -120 10 -73 0 -120 4 -120 10 0 6 50 10 130 10 80 0 130 -4 130 -10z
m-3300 -40 c0 -5 25 -10 55 -10 46 0 60 -4 80 -25 14 -13 25 -29 25 -35 0 -22
29 -40 64 -40 20 0 36 -4 36 -10 0 -5 14 -10 30 -10 17 0 30 5 30 10 0 6 30
10 70 10 40 0 70 4 70 10 0 6 23 10 50 10 43 0 50 -3 50 -20 0 -32 46 -26 80
10 27 29 60 40 60 20 0 -5 23 -10 50 -10 l50 0 0 -40 c0 -38 -2 -40 -30 -40
-16 0 -30 5 -30 10 0 6 -57 10 -150 10 -93 0 -150 4 -150 10 0 6 -22 10 -50
10 -27 0 -50 -4 -50 -10 0 -5 -7 -10 -15 -10 -18 0 -65 -44 -65 -61 0 -6 -13
-24 -30 -39 -31 -29 -41 -75 -17 -83 8 -3 5 -11 -10 -24 -13 -12 -23 -32 -23
-47 0 -14 -4 -26 -10 -26 -5 0 -10 -9 -10 -20 0 -11 -4 -20 -10 -20 -5 0 -10
-13 -10 -30 0 -16 -4 -30 -10 -30 -6 0 -10 36 -10 89 0 62 -4 91 -12 94 -9 3
-6 11 10 24 15 14 22 32 22 57 0 20 5 36 10 36 16 0 12 89 -4 106 -10 10 -38
14 -90 14 -44 0 -76 4 -76 10 0 6 -40 10 -100 10 l-100 0 0 50 0 50 110 0 c67
0 110 -4 110 -10z m4460 -110 c0 -33 4 -60 10 -60 6 0 10 -18 10 -40 l0 -40
-60 0 -60 0 0 30 c0 17 5 30 10 30 6 0 10 9 10 20 0 11 5 20 10 20 6 0 10 9
10 20 0 11 5 20 10 20 6 0 10 7 10 15 0 17 20 44 33 45 4 0 7 -27 7 -60z
m-4800 -19 c0 -38 -5 -61 -12 -65 -10 -5 -10 -7 0 -12 17 -8 15 -53 -5 -72
-12 -12 -18 -13 -21 -4 -4 14 -42 16 -42 2 0 -5 -22 -10 -50 -10 -27 0 -50 -4
-50 -10 0 -5 -9 -10 -20 -10 -11 0 -20 5 -20 10 0 6 5 10 10 10 6 0 10 18 10
40 0 33 -3 40 -20 40 -11 0 -20 5 -20 10 0 6 5 10 10 10 6 0 10 18 10 40 l0
40 60 0 c33 0 60 4 60 10 0 6 14 10 30 10 17 0 30 5 30 10 0 6 9 10 20 10 18
0 20 -7 20 -59z m1560 29 c0 -6 37 -10 90 -10 53 0 90 -4 90 -10 0 -6 37 -10
90 -10 53 0 90 -4 90 -10 0 -6 -40 -10 -100 -10 -60 0 -100 4 -100 10 0 6 -13
10 -30 10 -16 0 -30 -4 -30 -10 0 -5 -9 -10 -20 -10 -11 0 -20 -4 -20 -10 0
-5 5 -10 10 -10 6 0 10 -9 10 -20 0 -11 -4 -20 -10 -20 -5 0 -10 5 -10 10 0 6
-22 10 -50 10 -27 0 -50 -4 -50 -10 0 -5 9 -10 20 -10 11 0 20 -4 20 -10 0 -5
-13 -10 -30 -10 -23 0 -30 -4 -30 -20 0 -13 -7 -20 -19 -20 -11 0 -22 -6 -25
-12 -5 -10 -7 -10 -12 0 -3 7 -25 12 -55 12 -27 0 -49 5 -49 10 0 6 -4 10 -10
10 -6 0 -10 -27 -10 -60 0 -33 -4 -60 -10 -60 -5 0 -10 8 -10 18 0 10 -9 24
-20 32 -21 15 -28 50 -10 50 6 0 10 14 10 30 0 17 -4 30 -10 30 -5 0 -10 18
-10 40 l0 40 70 0 c40 0 70 4 70 10 0 6 -30 10 -70 10 -40 0 -70 4 -70 10 0 6
57 10 150 10 93 0 150 -4 150 -10z m480 -60 c0 -5 -4 -10 -10 -10 -5 0 -10 5
-10 10 0 6 5 10 10 10 6 0 10 -4 10 -10z m-320 -20 c0 -5 -13 -10 -30 -10 -16
0 -30 5 -30 10 0 6 14 10 30 10 17 0 30 -4 30 -10z m3900 -20 c0 -5 -4 -10
-10 -10 -5 0 -10 5 -10 10 0 6 5 10 10 10 6 0 10 -4 10 -10z m80 0 c0 -5 -9
-10 -20 -10 -11 0 -20 5 -20 10 0 6 9 10 20 10 11 0 20 -4 20 -10z m-2240 -49
c0 -11 -6 -22 -12 -24 -10 -4 -9 -8 2 -17 11 -9 12 -13 3 -17 -8 -2 -13 -22
-13 -44 0 -35 -2 -39 -26 -39 -42 0 -54 21 -54 94 l0 66 50 0 c43 0 50 -3 50
-19z m280 -11 c0 -6 27 -10 60 -10 33 0 60 -4 60 -10 0 -5 -9 -10 -20 -10 -17
0 -20 -7 -20 -46 0 -27 6 -51 15 -60 13 -13 18 -12 40 10 19 19 25 35 25 71
l0 45 60 0 c33 0 60 -4 60 -10 0 -6 47 -10 120 -10 l120 0 0 -130 0 -130 -50
0 c-27 0 -50 5 -50 10 0 15 -29 12 -46 -4 -11 -11 -14 -46 -14 -150 0 -84 -4
-136 -10 -136 -5 0 -10 -9 -10 -20 0 -11 5 -20 10 -20 6 0 10 -9 10 -20 0 -11
-4 -20 -10 -20 -6 0 -10 -30 -10 -70 0 -40 -4 -70 -10 -70 -5 0 -10 -9 -10
-20 0 -16 -7 -20 -30 -20 -16 0 -30 5 -30 10 0 6 5 10 10 10 15 0 13 177 -2
184 -10 5 -10 7 0 12 6 3 12 18 12 34 0 16 6 31 13 33 9 4 8 8 -3 17 -11 9
-12 13 -2 17 14 6 16 43 2 43 -5 0 -10 9 -10 20 0 11 5 20 10 20 6 0 10 33 10
80 l0 80 40 0 c22 0 40 3 40 6 0 3 -13 19 -30 34 -22 21 -30 37 -30 63 0 20 6
37 12 39 19 7 -16 38 -42 38 -24 0 -70 -42 -70 -65 0 -8 -4 -15 -10 -15 -5 0
-10 -9 -10 -20 0 -11 -4 -20 -10 -20 -5 0 -10 -9 -10 -20 0 -11 5 -20 10 -20
15 0 12 -57 -2 -63 -10 -4 -9 -8 2 -17 11 -9 12 -13 3 -17 -15 -6 -18 -83 -3
-83 6 0 10 -9 10 -20 0 -11 -4 -20 -10 -20 -6 0 -10 -40 -10 -99 0 -70 -4
-101 -12 -105 -10 -5 -10 -7 0 -12 14 -7 16 -44 2 -44 -14 0 -12 -37 3 -43 9
-4 8 -8 -3 -17 -11 -9 -12 -13 -2 -17 6 -2 12 -13 12 -23 0 -10 -6 -21 -12
-23 -10 -4 -9 -8 2 -17 11 -9 12 -13 3 -17 -7 -2 -13 -13 -13 -24 0 -14 -7
-19 -30 -19 l-30 0 0 60 c0 33 4 60 10 60 6 0 10 83 10 230 0 223 -1 230 -20
230 -13 0 -20 7 -20 20 0 11 5 20 10 20 6 0 10 9 10 20 0 11 5 20 10 20 6 0
10 13 10 29 0 16 6 31 12 33 9 3 8 9 -4 21 -12 13 -34 17 -82 17 -37 0 -66 4
-66 10 0 6 -18 10 -40 10 -22 0 -40 -4 -40 -10 0 -5 -9 -10 -20 -10 -11 0 -20
5 -20 10 0 6 -9 10 -20 10 -22 0 -27 15 -7 23 9 4 8 8 -3 17 -11 9 -12 13 -2
17 14 6 16 43 2 43 -5 0 -10 14 -10 30 l0 30 90 0 c53 0 90 -4 90 -10z m-3470
-30 c8 -11 22 -20 32 -20 10 0 18 -4 18 -10 0 -5 -4 -10 -10 -10 -5 0 -10 -18
-10 -40 0 -22 -4 -40 -10 -40 -6 0 -10 -37 -10 -90 0 -53 -4 -90 -10 -90 -15
0 -12 -77 3 -84 10 -5 10 -7 0 -12 -9 -4 -13 -29 -13 -75 0 -39 -4 -69 -10
-69 -15 0 -12 -58 2 -62 9 -3 8 -9 -4 -21 -9 -9 -19 -17 -22 -17 -3 0 -6 45
-6 100 0 60 -4 100 -10 100 -18 0 -11 35 10 50 14 10 20 26 20 52 0 21 -4 38
-10 38 -5 0 -10 9 -10 20 0 11 -4 20 -10 20 -15 0 -13 157 3 164 10 5 10 7 0
12 -8 3 -13 25 -13 55 0 47 1 49 28 49 16 0 34 -8 42 -20z m2750 -30 c0 -27
-4 -50 -10 -50 -5 0 -10 -7 -10 -15 0 -9 -16 -31 -35 -50 -19 -19 -41 -35 -50
-35 -8 0 -15 -4 -15 -10 0 -5 -9 -10 -20 -10 -11 0 -20 -4 -20 -10 0 -5 -18
-10 -40 -10 -22 0 -40 -4 -40 -10 0 -5 -4 -10 -10 -10 -5 0 -10 11 -10 25 0
17 17 43 55 80 30 30 60 55 67 56 7 0 33 22 58 49 60 66 80 66 80 0z m-2060
-20 c0 -5 9 -10 20 -10 18 0 20 -7 20 -60 0 -33 -4 -60 -10 -60 -5 0 -10 9
-10 20 0 11 -4 20 -10 20 -5 0 -10 9 -10 20 0 13 -7 20 -20 20 -22 0 -27 15
-7 24 10 5 10 7 0 12 -20 9 -15 24 7 24 11 0 20 -4 20 -10z m3840 0 c0 -5 9
-10 20 -10 11 0 20 -4 20 -10 0 -5 9 -10 20 -10 11 0 20 -7 20 -15 0 -9 11
-27 25 -40 23 -24 30 -25 150 -25 77 0 125 4 125 10 0 6 9 10 20 10 20 0 20
-7 20 -270 0 -173 -4 -270 -10 -270 -6 0 -10 -40 -10 -100 0 -93 -1 -100 -20
-100 -11 0 -20 -4 -20 -10 0 -5 14 -10 30 -10 17 0 30 -4 30 -10 0 -5 -9 -10
-20 -10 -11 0 -20 -4 -20 -10 0 -5 -13 -10 -30 -10 -16 0 -30 5 -30 10 0 6
-70 10 -190 10 -120 0 -190 4 -190 10 0 6 5 10 10 10 6 0 10 56 10 149 0 110
3 151 13 155 10 5 10 7 0 12 -16 7 -18 124 -3 124 6 0 10 18 10 40 0 22 -4 40
-10 40 -6 0 -10 27 -10 60 0 33 4 60 10 60 6 0 10 14 10 30 0 17 -4 30 -10 30
-6 0 -10 30 -10 70 0 69 -1 70 -26 70 -40 0 -54 -22 -54 -84 0 -31 -4 -56 -10
-56 -5 0 -10 -9 -10 -20 0 -11 -4 -20 -10 -20 -5 0 -10 -8 -10 -18 0 -10 -9
-24 -20 -32 -28 -20 -25 -30 10 -30 17 0 30 -4 30 -10 0 -5 -12 -10 -26 -10
-29 0 -54 -21 -54 -44 0 -9 -4 -16 -10 -16 -5 0 -10 -9 -10 -20 0 -11 -4 -20
-10 -20 -5 0 -10 -7 -10 -16 0 -9 -13 -29 -30 -44 -16 -15 -30 -33 -30 -39 0
-21 -49 -61 -75 -61 -14 0 -25 5 -25 10 0 6 -9 10 -20 10 -19 0 -20 7 -20 230
l0 230 50 0 c28 0 50 5 50 10 0 6 9 10 20 10 11 0 20 5 20 10 0 6 9 10 20 10
11 0 20 5 20 10 0 6 14 10 30 10 17 0 30 5 30 10 0 6 43 10 110 10 67 0 110
-4 110 -10z m-4040 -30 c0 -11 -4 -20 -10 -20 -5 0 -10 -13 -10 -30 0 -23 -4
-30 -20 -30 -13 0 -20 7 -20 20 0 11 -4 20 -10 20 -5 0 -10 14 -10 30 0 28 2
30 40 30 33 0 40 -3 40 -20z m280 -10 c0 -5 -4 -10 -10 -10 -5 0 -10 5 -10 10
0 6 5 10 10 10 6 0 10 -4 10 -10z m-300 -110 c0 -13 -7 -20 -20 -20 -13 0 -20
7 -20 20 0 13 7 20 20 20 13 0 20 -7 20 -20z m2920 12 c0 -4 -9 -14 -20 -22
-40 -29 -17 -90 34 -90 22 0 26 4 26 30 0 17 5 30 10 30 6 0 10 5 10 10 0 6
-9 10 -20 10 -11 0 -20 5 -20 10 0 6 18 10 40 10 l40 0 0 -50 c0 -27 -4 -50
-10 -50 -5 0 -10 -9 -10 -20 0 -13 7 -20 20 -20 13 0 20 -7 20 -20 0 -11 -4
-20 -10 -20 -5 0 -10 -9 -10 -20 0 -11 -4 -20 -10 -20 -5 0 -10 -9 -10 -20 0
-26 -6 -25 -38 7 -17 17 -22 28 -14 31 17 5 15 31 -5 50 -12 12 -18 13 -21 4
-7 -21 -42 -14 -42 8 0 12 -7 20 -16 20 -22 0 -53 32 -36 38 6 2 12 19 12 38
0 19 6 41 13 49 13 15 67 21 67 7z m-160 -52 c0 -22 -4 -40 -10 -40 -18 0 -11
-35 10 -50 12 -8 20 -26 20 -42 0 -21 -5 -28 -20 -28 -11 0 -20 -4 -20 -10 0
-15 -29 -12 -46 4 -16 17 -19 46 -4 46 6 0 10 22 10 49 0 30 5 52 13 55 10 5
10 7 0 12 -7 3 -13 14 -13 25 0 14 7 19 30 19 28 0 30 -2 30 -40z m-2560 10
c0 -5 -4 -10 -10 -10 -5 0 -10 5 -10 10 0 6 5 10 10 10 6 0 10 -4 10 -10z
m-460 -60 c0 -16 -4 -30 -10 -30 -5 0 -10 14 -10 30 0 17 5 30 10 30 6 0 10
-13 10 -30z m220 -60 c0 -5 -4 -10 -10 -10 -5 0 -10 5 -10 10 0 6 5 10 10 10
6 0 10 -4 10 -10z m2340 0 c0 -5 -9 -10 -20 -10 -11 0 -20 5 -20 10 0 6 9 10
20 10 11 0 20 -4 20 -10z m-2554 -44 c16 -17 19 -46 4 -46 -6 0 -10 -30 -10
-70 0 -38 -3 -70 -6 -70 -43 0 -48 195 -6 200 2 0 10 -6 18 -14z m3740 0 c30
-30 17 -46 -36 -46 -38 0 -50 4 -50 15 0 40 57 60 86 31z m-566 -16 c0 -5 -9
-10 -20 -10 -13 0 -20 -7 -20 -20 0 -13 -7 -20 -20 -20 -11 0 -20 -4 -20 -10
0 -5 5 -10 10 -10 6 0 10 -9 10 -20 0 -11 -4 -20 -10 -20 -5 0 -10 -8 -10 -18
0 -10 -9 -24 -20 -32 -14 -10 -20 -26 -20 -52 0 -38 0 -38 40 -38 33 0 40 3
40 20 0 13 7 20 20 20 11 0 20 -4 20 -10 0 -15 29 -12 46 4 16 17 20 106 4
106 -5 0 -10 5 -10 10 0 15 49 12 66 -4 16 -17 20 -106 4 -106 -6 0 -10 -43
-10 -110 0 -67 -4 -110 -10 -110 -5 0 -10 -9 -10 -20 0 -17 -7 -20 -40 -20
-33 0 -40 3 -40 20 0 11 -4 20 -10 20 -5 0 -10 9 -10 20 0 15 7 20 26 20 26 0
54 20 54 40 0 19 -27 40 -52 40 -13 0 -30 9 -38 20 -11 15 -26 20 -61 20 -28
0 -50 -5 -53 -12 -5 -10 -7 -10 -12 0 -3 6 -19 12 -35 12 l-29 0 0 -86 c0 -88
-10 -114 -44 -114 -14 0 -16 18 -16 130 0 80 4 130 10 130 6 0 10 9 10 19 0
11 6 22 13 25 10 5 10 7 0 12 -7 3 -13 14 -13 24 0 10 6 21 13 24 10 5 10 7 0
12 -18 8 -16 24 3 24 22 0 53 -32 36 -38 -8 -2 -12 -25 -12 -63 0 -57 1 -59
26 -59 29 0 54 21 54 44 0 9 5 16 10 16 6 0 10 23 10 50 0 28 5 50 10 50 6 0
10 14 10 30 0 17 -4 30 -10 30 -5 0 -10 5 -10 10 0 6 27 10 60 10 33 0 60 -4
60 -10z m-2940 -20 c0 -5 -4 -10 -10 -10 -5 0 -10 5 -10 10 0 6 5 10 10 10 6
0 10 -4 10 -10z m2440 -38 c0 -16 -8 -34 -20 -42 -21 -15 -28 -50 -10 -50 6 0
10 -9 10 -20 0 -17 -7 -20 -40 -20 -22 0 -40 5 -40 10 0 6 -9 10 -20 10 -11 0
-20 5 -20 10 0 6 -9 10 -20 10 -11 0 -20 -4 -20 -10 0 -5 -18 -10 -40 -10 -22
0 -40 5 -40 10 0 6 -7 10 -15 10 -15 0 -65 42 -65 55 0 3 27 5 60 5 33 0 60
-4 60 -10 0 -5 18 -10 40 -10 22 0 40 5 40 10 0 6 9 10 20 10 13 0 20 7 20 20
0 13 7 20 20 20 11 0 20 5 20 10 0 6 14 10 30 10 26 0 30 -4 30 -28z m-420
-12 c0 -13 -7 -20 -20 -20 -23 0 -25 5 -7 25 17 20 27 18 27 -5z m526 6 c8 -8
14 -31 14 -50 0 -20 5 -36 10 -36 6 0 10 -37 10 -90 0 -53 4 -90 10 -90 6 0
10 -13 10 -30 0 -16 -4 -30 -10 -30 -15 0 -12 -77 3 -84 10 -5 10 -7 0 -12 -7
-3 -13 -19 -13 -35 0 -16 -4 -29 -10 -29 -5 0 -10 -13 -10 -29 0 -16 -6 -32
-12 -34 -10 -4 -9 -8 2 -16 8 -5 11 -14 6 -18 -5 -4 -11 -2 -13 5 -3 8 -26 12
-64 12 l-59 0 0 46 c0 38 -5 51 -30 74 -16 15 -30 35 -30 44 0 13 -14 16 -90
16 -53 0 -90 4 -90 10 0 6 -13 10 -30 10 -16 0 -30 -4 -30 -10 0 -5 -13 -10
-30 -10 -16 0 -30 3 -30 6 0 11 29 34 44 34 9 0 16 8 16 20 0 15 7 20 26 20
16 0 37 12 54 30 21 23 37 30 64 30 20 0 36 5 36 10 0 6 30 10 70 10 63 0 70
2 70 20 0 11 5 20 10 20 6 0 10 23 10 50 0 28 5 50 10 50 6 0 10 9 10 20 0 11
5 20 10 20 6 0 10 7 10 15 0 14 19 44 28 45 2 0 10 -6 18 -14z m-2580 -40 c8
-8 14 -20 14 -26 0 -12 -24 -40 -34 -40 -3 0 -6 18 -6 40 0 43 4 47 26 26z
m-486 -76 c0 -27 -4 -50 -10 -50 -5 0 -10 23 -10 50 0 28 5 50 10 50 6 0 10
-22 10 -50z m2580 40 c0 -5 7 -10 16 -10 9 0 29 -13 44 -30 15 -16 33 -30 40
-30 6 0 18 -7 26 -15 14 -13 13 -17 -2 -32 -13 -13 -19 -14 -22 -5 -2 7 -23
12 -53 12 -27 0 -49 5 -49 10 0 6 -12 10 -26 10 -14 0 -32 6 -40 14 -16 17
-19 46 -4 46 6 0 10 9 10 20 0 16 7 20 30 20 17 0 30 -4 30 -10z m1460 -30 l0
-40 -50 0 c-53 0 -66 16 -36 46 8 8 22 14 30 14 9 0 16 5 16 10 0 6 9 10 20
10 17 0 20 -7 20 -40z m-3300 0 c0 -11 -4 -20 -10 -20 -5 0 -10 9 -10 20 0 11
5 20 10 20 6 0 10 -9 10 -20z m-1140 -10 c0 -5 -4 -10 -10 -10 -5 0 -10 5 -10
10 0 6 5 10 10 10 6 0 10 -4 10 -10z m4840 -20 c0 -5 -22 -10 -50 -10 -27 0
-50 5 -50 10 0 6 23 10 50 10 28 0 50 -4 50 -10z m-2060 -20 c0 -5 -4 -10 -10
-10 -5 0 -10 5 -10 10 0 6 5 10 10 10 6 0 10 -4 10 -10z m-1620 -20 c0 -5 -4
-10 -10 -10 -5 0 -10 5 -10 10 0 6 5 10 10 10 6 0 10 -4 10 -10z m3380 -70 c0
-33 -4 -60 -10 -60 -6 0 -10 27 -10 60 0 33 4 60 10 60 6 0 10 -27 10 -60z
m-1860 10 c0 -5 -4 -10 -10 -10 -5 0 -10 5 -10 10 0 6 5 10 10 10 6 0 10 -4
10 -10z m-40 -16 c0 -3 -6 -12 -14 -20 -21 -21 -46 -17 -46 6 0 16 7 20 30 20
17 0 30 -3 30 -6z m1780 -54 l0 -40 -40 0 c-33 0 -40 3 -40 20 0 11 5 20 10
20 6 0 10 9 10 20 0 16 7 20 30 20 28 0 30 -2 30 -40z m-3680 -90 c0 -5 -4
-10 -10 -10 -5 0 -10 5 -10 10 0 6 5 10 10 10 6 0 10 -4 10 -10z m3900 0 c0
-5 9 -10 20 -10 11 0 20 5 20 10 0 6 9 10 20 10 11 0 20 -4 20 -10 0 -5 25
-10 56 -10 35 0 61 -5 70 -14 21 -21 18 -26 -16 -26 -16 0 -30 5 -30 10 0 6
-42 10 -106 10 -78 0 -109 4 -120 14 -21 22 -17 26 26 26 22 0 40 -4 40 -10z
m-2100 -50 c0 -38 -2 -40 -30 -40 -27 0 -30 3 -30 30 0 17 -4 30 -10 30 -5 0
-10 5 -10 10 0 6 18 10 40 10 l40 0 0 -40z m690 -60 c8 -12 26 -20 42 -20 15
0 28 -4 28 -10 0 -5 -4 -10 -10 -10 -5 0 -10 -4 -10 -10 0 -5 11 -10 25 -10
29 0 88 -51 67 -58 -7 -2 -12 -10 -12 -18 0 -24 -47 -64 -75 -64 -14 0 -25 -4
-25 -10 0 -5 -13 -10 -30 -10 -16 0 -30 5 -30 10 0 6 -9 10 -20 10 -11 0 -20
5 -20 10 0 6 -37 10 -90 10 -49 0 -90 3 -90 6 0 11 29 34 44 34 9 0 16 5 16
10 0 6 14 10 30 10 17 0 30 5 30 10 0 6 16 10 36 10 19 0 42 6 50 14 16 17 19
66 4 66 -5 0 -10 9 -10 20 0 13 7 20 18 20 10 0 24 -9 32 -20z m-2730 -10 c0
-5 18 -10 40 -10 22 0 40 -4 40 -10 0 -6 -40 -10 -100 -10 -60 0 -100 4 -100
10 0 6 -27 10 -60 10 -33 0 -60 4 -60 10 0 6 47 10 120 10 73 0 120 -4 120
-10z m-400 -40 c0 -5 -4 -10 -10 -10 -5 0 -10 5 -10 10 0 6 5 10 10 10 6 0 10
-4 10 -10z m980 -10 c0 -16 -7 -20 -30 -20 -16 0 -30 5 -30 10 0 6 -27 10 -60
10 -33 0 -60 4 -60 10 0 6 37 10 90 10 83 0 90 -1 90 -20z m160 10 c0 -5 -4
-10 -10 -10 -5 0 -10 5 -10 10 0 6 5 10 10 10 6 0 10 -4 10 -10z m2535 -15
c17 -16 25 -35 25 -59 0 -19 6 -36 12 -38 9 -3 8 -9 -4 -21 -21 -21 -35 -21
-55 -1 -14 13 -14 17 -2 26 11 7 11 11 2 15 -7 2 -13 13 -13 23 0 10 6 20 13
23 8 3 5 11 -10 24 -13 11 -23 23 -23 27 0 15 33 4 55 -19z m365 -25 c0 -5 9
-10 20 -10 11 0 20 -4 20 -8 0 -4 -9 -14 -20 -22 -11 -8 -20 -22 -20 -32 0
-10 -4 -18 -10 -18 -5 0 -10 -8 -10 -18 0 -10 -9 -24 -20 -32 -12 -8 -20 -26
-20 -42 0 -21 5 -28 20 -28 11 0 20 -4 20 -10 0 -5 -4 -10 -10 -10 -5 0 -10
-9 -10 -20 0 -11 -4 -20 -10 -20 -15 0 -12 -57 3 -64 10 -5 10 -7 0 -12 -7 -3
-13 -14 -13 -24 0 -10 6 -21 13 -24 10 -5 10 -7 0 -12 -8 -3 -13 -25 -13 -55
0 -27 -4 -49 -10 -49 -5 0 -10 -9 -10 -20 0 -11 5 -20 10 -20 14 0 12 -37 -2
-44 -10 -5 -10 -7 0 -12 7 -4 12 -27 12 -64 0 -37 -5 -60 -12 -64 -10 -5 -10
-7 0 -12 7 -4 12 -27 12 -65 0 -59 0 -59 -30 -59 l-30 0 0 90 c0 53 4 90 10
90 15 0 12 97 -2 104 -10 5 -10 7 0 12 9 4 12 41 12 133 0 115 -2 128 -20 141
-21 15 -28 50 -10 50 6 0 10 14 10 30 0 17 5 30 10 30 6 0 10 9 10 19 0 11 6
22 13 25 10 5 10 7 0 12 -15 7 -17 44 -3 44 6 0 10 9 10 20 0 11 5 20 10 20 6
0 10 14 10 30 0 27 3 30 30 30 17 0 30 -4 30 -10z m120 0 c0 -6 33 -10 80 -10
73 0 99 -9 68 -24 -10 -5 -10 -7 0 -12 14 -7 16 -44 2 -44 -15 0 -12 -57 3
-64 10 -5 10 -7 0 -12 -7 -3 -13 -19 -13 -35 0 -27 -2 -29 -40 -29 -38 0 -40
2 -40 30 0 23 -5 30 -19 30 -11 0 -21 -6 -23 -12 -3 -9 -9 -8 -21 4 -20 20
-23 103 -4 112 10 5 10 7 0 12 -15 7 -18 64 -3 64 6 0 10 -4 10 -10z m720 -20
c0 -5 7 -10 16 -10 23 0 44 -25 44 -54 0 -26 1 -26 80 -26 73 0 80 -2 80 -20
0 -19 -7 -20 -100 -20 -60 0 -100 -4 -100 -10 0 -5 -9 -10 -20 -10 -13 0 -20
7 -20 20 0 11 -4 20 -10 20 -6 0 -10 27 -10 60 0 53 2 60 20 60 11 0 20 -4 20
-10z m-2300 -20 c0 -5 -4 -10 -10 -10 -5 0 -10 5 -10 10 0 6 5 10 10 10 6 0
10 -4 10 -10z m920 -30 c0 -13 -7 -20 -20 -20 -13 0 -20 7 -20 20 0 13 7 20
20 20 13 0 20 -7 20 -20z m355 -5 c14 -13 25 -27 25 -30 0 -11 -39 -5 -44 8
-5 10 -7 10 -12 0 -8 -17 -32 -16 -50 1 -19 20 -18 26 6 26 11 0 20 5 20 10 0
18 31 10 55 -15z m585 -35 c0 -11 -4 -20 -10 -20 -5 0 -10 9 -10 20 0 11 5 20
10 20 6 0 10 -9 10 -20z m260 0 c0 -16 -7 -20 -30 -20 -16 0 -30 -4 -30 -10 0
-5 -9 -10 -20 -10 -16 0 -20 -7 -20 -30 0 -16 -4 -30 -10 -30 -5 0 -10 -9 -10
-20 0 -13 -7 -20 -19 -20 -11 0 -21 -6 -23 -12 -6 -17 -38 14 -38 36 0 11 -9
16 -30 16 -23 0 -30 4 -30 20 0 13 7 20 20 20 11 0 20 5 20 10 0 6 16 10 36
10 38 0 64 18 64 44 0 13 12 16 60 16 53 0 60 -2 60 -20z m580 -50 c0 -27 5
-50 10 -50 6 0 10 -4 10 -10 0 -5 -22 -10 -50 -10 -27 0 -50 -4 -50 -10 0 -5
-9 -10 -20 -10 -11 0 -20 5 -20 10 0 6 5 10 10 10 6 0 10 14 10 30 0 21 -5 30
-16 30 -8 0 -22 7 -30 15 -28 27 2 44 79 45 l67 0 0 -50z m-1574 -4 c19 -20
18 -26 -6 -26 -15 0 -20 -7 -20 -25 0 -26 40 -75 60 -75 22 0 40 29 40 64 0
29 4 36 20 36 16 0 20 -7 20 -30 0 -16 -4 -30 -10 -30 -5 0 -10 -18 -10 -40 0
-38 2 -40 30 -40 17 0 30 -3 30 -6 0 -11 -29 -34 -44 -34 -11 0 -16 -9 -16
-30 0 -34 -5 -37 -26 -16 -17 18 -18 43 -2 48 25 9 -20 38 -56 38 -33 0 -36 2
-36 30 0 17 -4 30 -10 30 -5 0 -10 -4 -10 -10 0 -5 -4 -10 -10 -10 -5 0 -10 9
-10 20 0 11 5 20 10 20 14 0 12 38 -2 42 -8 3 -4 14 12 31 30 31 28 30 46 13z
m-146 -56 c0 -43 -3 -50 -20 -50 -23 0 -28 34 -7 44 10 5 10 7 0 12 -21 10
-16 44 7 44 17 0 20 -7 20 -50z m2180 -19 c0 -16 -6 -32 -12 -35 -10 -5 -10
-7 0 -12 30 -14 4 -84 -32 -84 -9 0 -16 -4 -16 -10 0 -5 -9 -10 -20 -10 -11 0
-20 -4 -20 -10 0 -5 5 -10 10 -10 6 0 10 -47 10 -120 0 -73 -4 -120 -10 -120
-18 0 -11 -32 11 -51 19 -17 20 -20 5 -34 -14 -15 -18 -15 -31 -1 -8 8 -15 22
-15 30 0 9 -4 16 -10 16 -15 0 -12 77 3 84 10 5 10 7 0 12 -7 3 -13 17 -13 31
0 13 -6 31 -14 39 -17 16 -66 19 -66 4 0 -5 -9 -10 -20 -10 -27 0 -25 7 10 40
17 15 30 35 30 44 0 19 36 22 43 4 2 -8 8 -9 13 -4 5 5 4 11 -3 13 -22 8 -14
34 17 63 18 17 30 38 30 54 0 19 5 26 20 26 11 0 20 -4 20 -10 0 -5 5 -10 10
-10 6 0 10 9 10 20 0 11 5 20 10 20 6 0 10 14 10 30 0 17 5 30 10 30 6 0 10
-13 10 -29z m-1560 -1 c0 -5 -4 -10 -10 -10 -14 0 -12 -37 3 -44 10 -5 10 -7
0 -12 -7 -3 -13 -14 -13 -24 0 -10 -6 -20 -12 -23 -9 -3 -6 -11 10 -24 22 -21
30 -53 12 -53 -5 0 -10 -18 -10 -40 0 -22 -4 -40 -10 -40 -15 0 -12 -77 3 -84
10 -5 10 -7 0 -12 -8 -3 -13 -25 -13 -55 0 -27 -4 -49 -10 -49 -5 0 -10 -13
-10 -30 0 -16 5 -30 10 -30 6 0 10 -4 10 -10 0 -5 -13 -10 -30 -10 -23 0 -30
4 -30 20 0 11 5 20 10 20 15 0 13 157 -2 164 -10 5 -10 7 0 12 8 4 12 35 12
105 0 59 4 99 10 99 6 0 10 30 10 70 l0 70 30 0 c17 0 30 -4 30 -10z m966 -44
c8 -8 14 -17 14 -20 0 -3 -31 -6 -70 -6 -40 0 -70 4 -70 10 0 6 9 10 20 10 11
0 20 5 20 10 0 15 70 12 86 -4z m-1586 -26 c0 -11 5 -20 10 -20 15 0 12 -29
-4 -46 -8 -8 -26 -14 -40 -14 -22 0 -26 4 -26 30 0 17 5 30 10 30 6 0 10 -4
10 -10 0 -5 5 -10 10 -10 6 0 10 9 10 20 0 11 -4 20 -10 20 -5 0 -10 5 -10 10
0 6 9 10 20 10 13 0 20 -7 20 -20z m1240 -40 c0 -11 -4 -20 -10 -20 -5 0 -10
9 -10 20 0 11 5 20 10 20 6 0 10 -9 10 -20z m-520 -30 c0 -28 -2 -30 -40 -30
-22 0 -40 2 -40 5 0 13 47 54 63 54 12 1 17 -7 17 -29z m740 0 c0 -5 14 -10
30 -10 23 0 30 -4 30 -20 0 -11 5 -20 10 -20 6 0 10 -9 10 -20 0 -16 -7 -20
-30 -20 -16 0 -30 5 -30 10 0 6 -9 10 -20 10 -13 0 -20 7 -20 18 0 10 -9 24
-20 32 -28 20 -25 30 10 30 17 0 30 -4 30 -10z m-1320 -20 c0 -5 -4 -10 -10
-10 -5 0 -10 -9 -10 -20 0 -11 -4 -20 -10 -20 -5 0 -10 -9 -10 -20 0 -11 -4
-20 -10 -20 -5 0 -10 -12 -10 -26 0 -23 -20 -54 -34 -54 -12 0 -6 38 7 43 9 4
8 8 -3 17 -11 9 -12 13 -2 17 6 2 12 18 12 34 0 16 5 29 10 29 6 0 10 -4 10
-10 0 -5 5 -10 10 -10 6 0 10 9 10 20 0 13 -7 20 -20 20 -11 0 -20 5 -20 10 0
6 18 10 40 10 22 0 40 -4 40 -10z m960 -40 c0 -5 -4 -10 -10 -10 -5 0 -10 5
-10 10 0 6 5 10 10 10 6 0 10 -4 10 -10z m-54 -24 c21 -21 18 -26 -16 -26 -33
0 -36 4 -17 25 15 18 16 18 33 1z m634 -6 c0 -13 7 -20 20 -20 13 0 20 -7 20
-20 0 -22 -15 -27 -24 -7 -5 10 -7 10 -12 0 -5 -12 -84 -19 -84 -8 0 8 64 74
73 74 4 1 7 -8 7 -19z m-1394 -34 c19 -20 18 -26 -6 -26 -17 0 -20 -7 -20 -40
0 -22 -4 -40 -10 -40 -5 0 -10 -9 -10 -20 0 -11 -4 -20 -10 -20 -14 0 -12 37
3 44 10 5 10 7 0 12 -8 3 -13 25 -13 55 0 46 2 49 26 49 14 0 32 -6 40 -14z
m1269 -31 c25 -24 33 -55 15 -55 -5 0 -10 9 -10 20 0 11 -4 20 -10 20 -6 0
-10 -27 -10 -60 0 -33 4 -60 10 -60 6 0 10 -27 10 -60 0 -33 4 -60 10 -60 18
0 11 -35 -10 -50 -14 -10 -20 -26 -20 -52 0 -31 -4 -38 -20 -38 -13 0 -20 7
-20 20 0 11 -4 20 -10 20 -5 0 -10 -9 -10 -20 0 -11 -3 -20 -6 -20 -11 0 -34
29 -34 44 0 9 -4 16 -10 16 -5 0 -10 5 -10 10 0 6 18 10 40 10 30 0 40 4 40
16 0 9 10 26 23 37 15 13 18 21 10 24 -9 3 -13 36 -13 114 0 66 -4 109 -10
109 -5 0 -10 9 -10 20 0 27 26 25 55 -5z m-835 -35 c0 -22 -15 -27 -24 -7 -5
10 -7 10 -12 0 -9 -20 -24 -15 -24 7 0 16 7 20 30 20 23 0 30 -4 30 -20z m388
-17 c12 -12 13 -18 4 -21 -16 -5 -16 -39 1 -45 9 -4 8 -8 -3 -17 -11 -9 -12
-13 -2 -17 19 -8 14 -23 -8 -23 -11 0 -20 -4 -20 -10 0 -5 14 -10 30 -10 17 0
30 -4 30 -10 0 -5 -9 -10 -20 -10 -16 0 -20 -7 -20 -30 0 -27 -3 -30 -30 -30
-27 0 -30 3 -30 30 0 17 5 30 10 30 6 0 10 32 10 75 0 47 5 81 13 90 15 18 15
18 35 -2z m252 -13 c0 -5 -9 -10 -20 -10 -11 0 -20 5 -20 10 0 6 9 10 20 10
11 0 20 -4 20 -10z m-1180 -50 c0 -11 5 -20 10 -20 6 0 10 -9 10 -20 0 -13 -7
-20 -20 -20 -16 0 -20 7 -20 30 0 23 -4 30 -20 30 -11 0 -20 5 -20 10 0 6 14
10 30 10 23 0 30 -4 30 -20z m1146 -14 c19 -20 18 -26 -6 -26 -13 0 -20 7 -20
20 0 24 6 25 26 6z m-1086 -96 c0 -16 -4 -30 -10 -30 -5 0 -10 14 -10 30 0 17
5 30 10 30 6 0 10 -13 10 -30z m1100 20 c0 -5 -9 -10 -20 -10 -11 0 -20 -4
-20 -10 0 -5 9 -10 20 -10 11 0 20 -4 20 -10 0 -5 -13 -10 -30 -10 -27 0 -30
3 -30 30 0 27 3 30 30 30 17 0 30 -4 30 -10z m-633 -25 c8 -9 12 -19 8 -23 -4
-4 -10 -1 -12 6 -3 6 -13 12 -24 12 -10 0 -19 5 -19 10 0 15 30 12 47 -5z
m153 -45 c0 -22 5 -40 10 -40 6 0 10 14 10 30 0 21 5 30 16 30 22 0 44 -25 44
-50 0 -25 -51 -81 -58 -62 -2 7 -17 12 -33 12 -22 0 -29 5 -29 20 0 11 5 20
10 20 6 0 10 18 10 40 0 22 5 40 10 40 6 0 10 -18 10 -40z m820 -39 c0 -22 -6
-42 -12 -45 -10 -5 -10 -7 0 -12 14 -7 16 -44 2 -44 -5 0 -10 5 -10 10 0 6 -9
10 -20 10 -13 0 -20 7 -20 20 0 13 -7 20 -20 20 -11 0 -20 -4 -20 -10 0 -5 -4
-10 -10 -10 -5 0 -10 14 -10 30 0 26 4 30 28 30 16 0 34 8 42 20 8 11 22 20
32 20 14 0 18 -8 18 -39z m380 -41 c0 -11 -4 -20 -10 -20 -5 0 -10 9 -10 20 0
11 5 20 10 20 6 0 10 -9 10 -20z m-220 -19 c0 -11 6 -21 13 -24 6 -2 9 -8 5
-12 -9 -10 -38 19 -38 39 0 9 5 16 10 16 6 0 10 -9 10 -19z m367 -16 c8 -9 13
-19 10 -22 -6 -5 -37 21 -37 31 0 10 11 6 27 -9z m-1287 -105 c0 -17 -7 -20
-40 -20 -33 0 -40 3 -40 20 0 17 7 20 40 20 33 0 40 -3 40 -20z m406 -35 c14
-13 14 -17 0 -31 -14 -14 -18 -14 -31 0 -20 19 -19 46 1 46 8 0 22 -7 30 -15z
m294 -4 c0 -11 6 -22 13 -24 9 -4 8 -8 -3 -17 -11 -9 -12 -13 -2 -17 8 -3 12
-26 12 -64 0 -52 2 -59 20 -59 11 0 20 -4 20 -10 0 -15 -29 -12 -46 4 -8 8
-14 30 -14 49 0 20 -6 38 -12 40 -10 4 -9 8 2 16 13 10 13 12 0 21 -13 9 -13
11 0 19 12 8 11 13 -8 29 -27 24 -28 32 -2 32 13 0 20 -7 20 -19z m240 -11 c0
-20 5 -30 15 -30 18 0 65 -44 65 -60 0 -20 28 -40 54 -40 19 0 26 -5 26 -19 0
-11 -6 -22 -12 -24 -10 -4 -10 -8 1 -15 12 -9 12 -13 -2 -26 -8 -9 -21 -16
-27 -16 -17 0 -40 26 -40 44 0 9 -4 16 -10 16 -5 0 -10 12 -10 26 0 17 -16 41
-50 74 -53 51 -58 62 -37 85 19 22 27 18 27 -15z m-5160 -20 c0 -5 -4 -10 -10
-10 -5 0 -10 5 -10 10 0 6 5 10 10 10 6 0 10 -4 10 -10z m4220 0 c0 -5 -4 -10
-10 -10 -5 0 -10 5 -10 10 0 6 5 10 10 10 6 0 10 -4 10 -10z m90 -10 c15 -21
50 -28 50 -10 0 6 14 10 30 10 23 0 30 -4 30 -20 0 -18 -7 -20 -60 -20 -53 0
-60 2 -60 20 0 11 -4 20 -10 20 -5 0 -10 5 -10 10 0 16 15 11 30 -10z m570
-26 c0 -47 -16 -74 -44 -74 -9 0 -16 8 -16 20 0 13 -7 20 -20 20 -11 0 -20 5
-20 10 0 6 9 10 20 10 13 0 20 7 20 20 0 13 7 20 20 20 11 0 20 5 20 10 0 6 5
10 10 10 6 0 10 -21 10 -46z m-274 -8 c19 -20 18 -26 -6 -26 -13 0 -20 7 -20
20 0 24 6 25 26 6z m-66 -16 c0 -5 -4 -10 -10 -10 -5 0 -10 5 -10 10 0 6 5 10
10 10 6 0 10 -4 10 -10z m1000 -60 c0 -43 -3 -50 -20 -50 -22 0 -27 15 -7 24
10 5 10 7 0 12 -7 3 -13 12 -13 20 0 16 20 43 33 44 4 0 7 -22 7 -50z m-720
-20 c0 -5 -4 -10 -10 -10 -5 0 -10 5 -10 10 0 6 5 10 10 10 6 0 10 -4 10 -10z
m-280 -20 c0 -5 -4 -10 -10 -10 -5 0 -10 5 -10 10 0 6 5 10 10 10 6 0 10 -4
10 -10z m340 0 c0 -5 -9 -10 -20 -10 -11 0 -20 5 -20 10 0 6 9 10 20 10 11 0
20 -4 20 -10z m680 -36 c0 -3 -6 -12 -14 -20 -21 -21 -46 -17 -46 6 0 16 7 20
30 20 17 0 30 -3 30 -6z m-980 -44 c0 -5 -9 -10 -20 -10 -11 0 -20 5 -20 10 0
6 9 10 20 10 11 0 20 -4 20 -10z m280 -30 c0 -11 -4 -20 -10 -20 -5 0 -10 9
-10 20 0 11 5 20 10 20 6 0 10 -9 10 -20z m680 4 c0 -15 -23 -44 -34 -44 -3 0
-6 14 -6 30 0 23 4 30 20 30 12 0 20 -7 20 -16z m-980 -34 c0 -5 -4 -10 -10
-10 -5 0 -10 5 -10 10 0 6 5 10 10 10 6 0 10 -4 10 -10z m0 -70 c0 -11 -4 -20
-10 -20 -5 0 -10 9 -10 20 0 11 5 20 10 20 6 0 10 -9 10 -20z m740 10 c0 -5 9
-10 19 -10 11 0 22 -6 25 -12 5 -10 7 -10 12 0 3 6 14 12 25 12 14 0 19 -7 19
-30 0 -23 -4 -30 -20 -30 -11 0 -20 5 -20 10 0 6 -4 10 -10 10 -5 0 -10 -9
-10 -20 0 -13 -7 -20 -20 -20 -17 0 -20 -7 -20 -50 0 -27 5 -50 10 -50 6 0 10
-9 10 -20 0 -11 -4 -20 -10 -20 -6 0 -10 -27 -10 -60 0 -33 -4 -60 -10 -60 -5
0 -10 -9 -10 -20 0 -13 -7 -20 -20 -20 -11 0 -20 5 -20 10 0 6 5 10 10 10 6 0
10 23 10 50 0 28 5 50 10 50 6 0 10 43 10 110 0 103 1 110 20 110 11 0 20 5
20 10 0 6 -13 10 -30 10 -23 0 -30 4 -30 20 0 13 7 20 20 20 11 0 20 -4 20
-10z m140 0 c0 -5 -4 -10 -10 -10 -5 0 -10 5 -10 10 0 6 5 10 10 10 6 0 10 -4
10 -10z m-640 -220 c0 -5 -4 -10 -10 -10 -5 0 -10 5 -10 10 0 6 5 10 10 10 6
0 10 -4 10 -10z m-4240 -60 c0 -5 -4 -10 -10 -10 -5 0 -10 5 -10 10 0 6 5 10
10 10 6 0 10 -4 10 -10z m4260 0 c0 -5 -4 -10 -10 -10 -5 0 -10 5 -10 10 0 6
5 10 10 10 6 0 10 -4 10 -10z m400 -100 c0 -5 -4 -10 -10 -10 -5 0 -10 -13
-10 -30 0 -23 -4 -30 -20 -30 -13 0 -20 7 -20 20 0 11 5 20 10 20 6 0 10 5 10
10 0 6 -18 10 -40 10 -22 0 -40 5 -40 10 0 6 27 10 60 10 33 0 60 -4 60 -10z
m-400 -80 c0 -5 -9 -10 -20 -10 -11 0 -20 5 -20 10 0 6 9 10 20 10 11 0 20 -4
20 -10z m440 -280 c0 -5 -13 -10 -30 -10 -23 0 -30 -4 -30 -20 0 -22 -15 -27
-24 -7 -5 10 -7 10 -12 0 -5 -13 -64 -19 -64 -7 0 14 31 34 54 34 14 0 26 5
26 10 0 6 18 10 40 10 22 0 40 -4 40 -10z m-5360 -20 c0 -5 -4 -10 -10 -10 -5
0 -10 5 -10 10 0 6 5 10 10 10 6 0 10 -4 10 -10z m540 -20 c0 -6 -70 -10 -190
-10 -120 0 -190 4 -190 10 0 6 70 10 190 10 120 0 190 -4 190 -10z m5000 -180
c0 -5 -4 -10 -10 -10 -5 0 -10 5 -10 10 0 6 5 10 10 10 6 0 10 -4 10 -10z
m-154 -24 c19 -20 18 -26 -6 -26 -13 0 -20 7 -20 20 0 24 6 25 26 6z m254
-146 c0 -13 -7 -20 -20 -20 -23 0 -25 5 -7 25 17 20 27 18 27 -5z m-120 -30
c0 -5 -4 -10 -10 -10 -5 0 -10 5 -10 10 0 6 5 10 10 10 6 0 10 -4 10 -10z
m-140 -90 c0 -11 -4 -20 -10 -20 -5 0 -10 9 -10 20 0 11 5 20 10 20 6 0 10 -9
10 -20z m180 10 c0 -5 -4 -10 -10 -10 -5 0 -10 5 -10 10 0 6 5 10 10 10 6 0
10 -4 10 -10z m-180 -110 c0 -11 -4 -20 -10 -20 -5 0 -10 9 -10 20 0 11 5 20
10 20 6 0 10 -9 10 -20z m-1360 -209 c0 -5 -6 -12 -12 -14 -10 -4 -9 -8 2 -16
8 -5 11 -13 8 -17 -10 -9 -38 21 -38 40 0 9 8 16 20 16 11 0 20 -4 20 -9z
m545 -386 c39 -39 45 -65 15 -65 -12 0 -20 7 -20 16 0 20 -24 44 -44 44 -9 0
-16 8 -16 20 0 30 26 24 65 -15z m821 -219 c22 -23 17 -26 -36 -26 -27 0 -50
5 -50 10 0 6 -30 10 -70 10 -40 0 -70 4 -70 10 0 17 209 13 226 -4z"/>
<path d="M800 4850 c0 -5 5 -10 10 -10 6 0 10 5 10 10 0 6 -4 10 -10 10 -5 0
-10 -4 -10 -10z"/>
<path d="M120 4830 c0 -5 9 -10 20 -10 11 0 20 5 20 10 0 6 -9 10 -20 10 -11
0 -20 -4 -20 -10z"/>
<path d="M1760 4930 c0 -5 14 -10 30 -10 17 0 30 5 30 10 0 6 -13 10 -30 10
-16 0 -30 -4 -30 -10z"/>
<path d="M1553 4905 c-19 -21 -16 -25 17 -25 34 0 37 5 16 26 -17 17 -18 17
-33 -1z"/>
<path d="M1680 4890 c0 -5 9 -10 20 -10 11 0 20 -4 20 -10 0 -5 9 -10 20 -10
13 0 20 7 20 20 0 17 -7 20 -40 20 -22 0 -40 -4 -40 -10z"/>
<path d="M480 4730 c0 -5 5 -10 10 -10 6 0 10 5 10 10 0 6 -4 10 -10 10 -5 0
-10 -4 -10 -10z"/>
<path d="M4720 4624 c0 -9 -10 -26 -22 -37 -16 -13 -19 -21 -10 -24 14 -6 17
-83 2 -83 -5 0 -10 -22 -10 -50 0 -27 -4 -50 -10 -50 -5 0 -10 -18 -10 -40 0
-22 -4 -40 -10 -40 -5 0 -10 -9 -10 -20 0 -11 -4 -20 -10 -20 -15 0 -12 -29 5
-46 13 -13 18 -12 40 10 14 14 25 32 25 41 0 8 5 15 10 15 6 0 10 14 10 30 0
17 5 30 10 30 6 0 10 9 10 20 0 11 5 20 10 20 6 0 10 18 10 40 0 22 5 40 10
40 6 0 10 23 10 50 0 28 5 50 10 50 6 0 10 18 10 40 l0 40 -40 0 c-30 0 -40
-4 -40 -16z"/>
<path d="M5133 4405 c-16 -18 -18 -225 -3 -225 6 0 10 -9 10 -20 0 -11 -4 -20
-10 -20 -6 0 -10 -47 -10 -120 l0 -120 50 0 c28 0 50 -4 50 -10 0 -5 18 -10
40 -10 22 0 40 5 40 10 0 6 14 10 30 10 l30 0 0 99 c0 70 4 101 12 103 21 7
-17 38 -45 38 -14 0 -28 6 -30 13 -4 9 -8 9 -15 -2 -9 -12 -13 -11 -29 4 -13
13 -14 20 -5 23 6 2 12 12 12 23 0 14 7 19 30 19 17 0 30 -4 30 -10 0 -5 9
-10 20 -10 11 0 20 -4 20 -10 0 -5 9 -10 20 -10 18 0 20 7 20 60 0 33 4 60 10
60 6 0 10 23 10 50 0 49 -1 50 -30 50 -16 0 -30 5 -30 10 0 17 -212 12 -227
-5z"/>
<path d="M3320 4230 c0 -5 9 -10 20 -10 11 0 20 5 20 10 0 6 -9 10 -20 10 -11
0 -20 -4 -20 -10z"/>
<path d="M5040 3610 c0 -5 5 -10 10 -10 6 0 10 5 10 10 0 6 -4 10 -10 10 -5 0
-10 -4 -10 -10z"/>
<path d="M4620 2870 c0 -5 5 -10 10 -10 6 0 10 5 10 10 0 6 -4 10 -10 10 -5 0
-10 -4 -10 -10z"/>
<path d="M5240 2550 c0 -5 9 -10 20 -10 11 0 20 5 20 10 0 6 -9 10 -20 10 -11
0 -20 -4 -20 -10z"/>
<path d="M1140 5960 c0 -38 2 -40 30 -40 23 0 30 5 30 19 0 11 -6 22 -12 25
-10 5 -10 7 0 12 22 10 12 24 -18 24 -28 0 -30 -2 -30 -40z"/>
<path d="M1220 5990 c0 -5 9 -10 20 -10 11 0 20 5 20 10 0 6 -9 10 -20 10 -11
0 -20 -4 -20 -10z"/>
<path d="M1320 5990 c0 -5 5 -10 10 -10 6 0 10 5 10 10 0 6 -4 10 -10 10 -5 0
-10 -4 -10 -10z"/>
<path d="M5372 5984 c-17 -19 6 -44 42 -44 22 0 26 4 26 30 0 26 -4 30 -27 30
-16 -1 -34 -7 -41 -16z"/>
<path d="M5900 5570 c0 -5 -9 -10 -20 -10 -13 0 -20 -7 -20 -20 0 -11 -4 -20
-10 -20 -5 0 -10 -4 -10 -10 0 -15 49 -12 66 4 16 17 19 66 4 66 -5 0 -10 -4
-10 -10z"/>
<path d="M5740 5392 c0 -96 2 -109 20 -122 11 -8 20 -18 20 -22 0 -4 -9 -8
-20 -8 -18 0 -20 -7 -20 -60 0 -58 1 -60 26 -60 29 0 54 21 54 44 0 9 5 16 10
16 6 0 10 9 10 20 0 11 5 20 10 20 6 0 10 5 10 10 0 6 -9 10 -20 10 -11 0 -20
5 -20 10 0 6 18 10 40 10 33 0 40 -3 40 -19 0 -11 -6 -22 -12 -25 -10 -5 -10
-7 0 -12 17 -8 15 -24 -4 -24 -8 0 -22 -6 -30 -14 -16 -17 -19 -66 -4 -66 6 0
10 5 10 10 0 6 9 10 20 10 13 0 20 7 20 20 0 11 5 20 10 20 6 0 10 -4 10 -10
0 -5 18 -10 40 -10 l40 0 0 80 0 80 -40 0 c-22 0 -40 5 -40 10 0 6 -27 10 -60
10 -71 0 -78 15 -30 60 18 17 30 38 30 54 0 22 -4 26 -30 26 -23 0 -30 4 -30
20 0 16 -7 20 -30 20 l-30 0 0 -108z"/>
<path d="M5940 5484 c0 -9 -13 -29 -30 -44 -18 -17 -30 -38 -30 -54 0 -22 4
-26 30 -26 17 0 30 -4 30 -10 0 -15 29 -12 46 4 21 21 17 56 -8 79 -16 13 -19
21 -10 24 21 8 14 43 -8 43 -12 0 -20 -7 -20 -16z"/>
<path d="M0 5400 l0 -40 50 0 c47 0 50 2 50 26 0 35 -22 54 -64 54 -35 0 -36
-1 -36 -40z"/>
<path d="M1560 5150 c0 -5 5 -10 10 -10 6 0 10 5 10 10 0 6 -4 10 -10 10 -5 0
-10 -4 -10 -10z"/>
<path d="M5753 5085 c-7 -8 -13 -30 -13 -50 0 -31 3 -35 25 -35 14 0 37 11 51
25 22 22 23 27 10 40 -8 8 -22 15 -30 15 -9 0 -16 5 -16 10 0 14 -13 12 -27
-5z"/>
<path d="M5920 5090 c0 -5 -9 -10 -20 -10 -13 0 -20 -7 -20 -18 0 -10 -9 -24
-20 -32 -11 -8 -20 -22 -20 -32 0 -15 9 -18 66 -18 73 0 94 12 94 54 0 18 -5
26 -18 26 -10 0 -24 9 -32 20 -15 21 -30 26 -30 10z"/>
<path d="M5860 3630 c0 -5 5 -10 10 -10 6 0 10 5 10 10 0 6 -4 10 -10 10 -5 0
-10 -4 -10 -10z"/>
<path d="M4473 1765 c-7 -8 -13 -39 -13 -70 0 -43 3 -55 16 -55 26 0 44 26 44
64 0 20 5 36 10 36 6 0 10 9 10 20 0 15 -7 20 -27 20 -16 -1 -34 -7 -40 -15z"/>
<path d="M2620 1030 c0 -16 5 -30 10 -30 6 0 10 -9 10 -20 0 -13 7 -20 20 -20
29 0 26 45 -5 75 -31 32 -35 31 -35 -5z"/>
<path d="M2453 885 c-7 -8 -13 -21 -13 -30 0 -8 -9 -15 -20 -15 -13 0 -20 -7
-20 -20 0 -12 -7 -20 -16 -20 -20 0 -44 -24 -44 -44 0 -9 -4 -16 -10 -16 -5 0
-10 -11 -10 -26 0 -18 -18 -42 -60 -84 -33 -32 -60 -66 -60 -74 0 -9 -4 -16
-10 -16 -5 0 -10 -9 -10 -20 0 -11 5 -20 10 -20 6 0 10 5 10 10 0 6 9 10 20
10 11 0 20 5 20 10 0 6 7 10 16 10 9 0 29 14 44 30 15 17 35 30 44 30 9 0 16
5 16 10 0 6 9 10 20 10 13 0 20 7 20 20 0 13 7 20 20 20 13 0 20 7 20 20 0 15
7 20 28 20 16 0 34 8 42 20 8 11 22 20 32 20 10 0 18 5 18 10 0 6 9 10 20 10
11 0 20 3 20 6 0 10 -28 34 -40 34 -17 0 -40 26 -40 44 0 9 -4 16 -10 16 -5 0
-10 9 -10 20 0 23 -29 26 -47 5z"/>
<path d="M1480 710 c0 -5 9 -10 20 -10 13 0 20 -7 20 -20 0 -17 7 -20 40 -20
22 0 40 5 40 10 0 6 -13 10 -30 10 -16 0 -30 5 -30 10 0 6 5 10 10 10 6 0 10
5 10 10 0 6 -18 10 -40 10 -22 0 -40 -4 -40 -10z"/>
<path d="M1260 694 c0 -11 29 -34 44 -34 9 0 16 -7 16 -16 0 -20 24 -44 44
-44 9 0 16 8 16 20 0 13 -7 20 -18 20 -10 0 -24 9 -32 20 -8 11 -22 20 -32 20
-10 0 -18 5 -18 10 0 6 -4 10 -10 10 -5 0 -10 -3 -10 -6z"/>
<path d="M1340 490 c0 -5 9 -10 20 -10 11 0 20 5 20 10 0 6 -9 10 -20 10 -11
0 -20 -4 -20 -10z"/>
<path d="M1400 470 c0 -5 9 -10 20 -10 11 0 20 5 20 10 0 6 -9 10 -20 10 -11
0 -20 -4 -20 -10z"/>
<path d="M2120 430 c0 -5 -9 -10 -20 -10 -11 0 -20 -4 -20 -10 0 -5 -9 -10
-20 -10 -11 0 -20 -4 -20 -10 0 -5 -9 -10 -20 -10 -11 0 -20 -4 -20 -10 0 -5
-9 -10 -20 -10 -11 0 -20 -4 -20 -10 0 -5 -13 -10 -30 -10 -16 0 -30 -4 -30
-10 0 -5 -13 -10 -30 -10 -21 0 -30 -5 -30 -16 0 -20 24 -44 44 -44 9 0 16 -4
16 -10 0 -5 9 -10 20 -10 11 0 20 -4 20 -10 0 -5 14 -10 30 -10 17 0 30 -4 30
-10 0 -5 18 -10 40 -10 22 0 40 -4 40 -10 0 -5 18 -10 40 -10 22 0 40 5 40 10
0 6 9 10 20 10 11 0 20 5 20 10 0 6 9 10 20 10 11 0 20 5 20 10 0 6 7 10 16
10 9 0 29 14 44 30 15 17 33 30 40 30 19 0 40 27 40 52 0 13 9 30 20 38 11 8
20 18 20 22 0 4 -45 8 -100 8 -60 0 -100 -4 -100 -10 0 -18 -55 -11 -70 10
-15 21 -30 26 -30 10z"/>
</g>
</svg>
